<svg xmlns="http://www.w3.org/2000/svg" viewBox="0 0 504.123 504.123"><path d="M236.064 361.913c0 19.503-15.817 124.668-35.336 124.668-19.495 0-35.304-105.173-35.304-124.668 0-19.495 15.817-35.32 35.304-35.32 19.519 0 35.336 15.825 35.336 35.32zm118.359 0c0 19.503-15.825 124.668-35.336 124.668-19.503 0-35.296-105.173-35.296-124.668 0-19.495 15.801-35.32 35.296-35.32 19.511 0 35.336 15.825 35.336 35.32z" fill="#057F73"/><path d="M359.558 315.242c0 126.33-44.591 84.259-99.643 84.259-55.028 0-99.643 42.071-99.643-84.259 0-72.231 44.631-130.781 99.643-130.781 55.028.009 99.643 58.558 99.643 130.781z" fill="#15B78D"/><path d="M294.267 214.315c11.28-10.027 33.304-3.663 49.231 14.218 15.896 17.881 85.023 114.018 73.767 124.062-11.288 10.012-98.721-69.892-114.617-87.773-15.888-17.857-19.645-40.479-8.381-50.507z" fill="#15B78D"/><path d="M259.915 348.31c-49.554 0-90.64 34.036-98.336-51.389-.843 5.104-1.308 11.138-1.308 18.33 0 126.33 44.615 84.259 99.643 84.259 55.052 0 99.643 42.071 99.643-84.259 0-7.192-.465-13.225-1.308-18.33-7.694 85.425-48.764 51.389-98.334 51.389z" fill="#089B78"/><path d="M240.483 487.219c0 14.935-17.81 16.904-39.731 16.904-21.945 0-39.747-1.961-39.747-16.904s17.802-35.509 39.747-35.509c21.921.008 39.731 20.567 39.731 35.509z" fill="#15B78D"/><path d="M240.483 487.219c0 14.935-17.81 16.904-39.731 16.904-21.945 0-39.747-1.961-39.747-16.904" fill="#089B78"/><path d="M358.834 487.219c0 14.935-17.802 16.904-39.739 16.904s-39.739-1.961-39.739-16.904 17.802-35.509 39.739-35.509 39.739 20.567 39.739 35.509z" fill="#15B78D"/><path d="M358.834 487.219c0 14.935-17.802 16.904-39.739 16.904s-39.739-1.961-39.739-16.904" fill="#089B78"/><path d="M270.384 231.219c-.898-15.061-20.976-26.136-44.859-24.757-23.883 1.402-140.737 20.512-139.894 35.564.906 15.069 119.233 20.385 143.108 18.983 23.859-1.386 42.503-14.729 41.645-29.79z" fill="#15B78D"/><path d="M388.868 124.258c0 63.008-57.738 94.681-128.945 94.681s-128.961-31.673-128.961-94.681C130.962 61.235 188.716 0 259.923 0s128.945 61.235 128.945 124.258z" fill="#21CC9B"/><path d="M388.868 124.258c0 63.008-57.738 94.681-128.945 94.681s-128.961-31.673-128.961-94.681c0-63.023 57.754-111.789 128.961-111.789s128.945 48.766 128.945 111.789z" fill="#15B78D"/><path d="M388.868 124.258c0 63.008-57.738 94.681-128.945 94.681s-128.961-31.673-128.961-94.681" fill="#089B78"/><path d="M223.406 54.571c15.896 14.557 28.144 49.483 13.58 65.378-14.549 15.896-54.146 17.542-70.042 2.97-15.911-14.557-13.249-50.026 1.315-65.922 14.557-15.895 39.235-16.99 55.147-2.426z" fill="#038462"/><path d="M223.406 54.571c15.896 14.557 28.144 49.483 13.58 65.378-14.549 15.896-50.412 6.751-66.3-7.814-15.911-14.557-16.983-39.235-2.426-55.138 14.556-15.895 39.234-16.99 55.146-2.426z" fill="#243B3D"/><path d="M168.259 56.99c14.564-15.896 39.235-16.983 55.146-2.426 15.896 14.557 28.144 49.483 13.58 65.378" fill="#1C292B"/><path d="M296.417 54.571c-15.896 14.557-28.152 49.483-13.588 65.378 14.557 15.896 54.154 17.542 70.042 2.97 15.919-14.557 13.257-50.026-1.3-65.922-14.564-15.895-39.235-16.99-55.154-2.426z" fill="#038462"/><path d="M296.417 54.571c-15.896 14.557-28.152 49.483-13.588 65.378 14.557 15.896 50.412 6.751 66.308-7.814 15.911-14.557 16.983-39.235 2.434-55.138-14.564-15.895-39.235-16.99-55.154-2.426z" fill="#243B3D"/><path d="M351.571 56.99c-14.572-15.896-39.235-16.983-55.154-2.426-15.896 14.557-28.152 49.483-13.588 65.378" fill="#1C292B"/><g fill="#057F73"><circle cx="259.915" cy="305.467" r="13.855"/><path d="M267.501 247.115v-11.681h-15.187v11.681c-28.908 3.734-51.247 28.42-51.247 58.337 0 29.909 22.339 54.603 51.247 58.321v11.689h15.187v-11.689c28.9-3.726 51.247-28.412 51.247-58.321 0-29.917-22.347-54.604-51.247-58.337zm0 99.54v-18.952a23.347 23.347 0 0 1-15.186 0v18.952c-19.519-3.576-34.304-20.645-34.304-41.196s14.793-37.628 34.304-41.196v18.952c2.387-.819 4.939-1.276 7.593-1.276s5.207.465 7.593 1.276v-18.952c19.511 3.568 34.304 20.645 34.304 41.196.008 20.535-14.793 37.62-34.304 41.196z"/></g></svg>