<svg xmlns="http://www.w3.org/2000/svg" viewBox="0 0 504.123 504.123"><path d="M450.954 152.946c0 6.152-4.994 11.154-11.162 11.154H64.323c-6.168 0-11.154-5.002-11.154-11.154 0-6.168 4.986-11.162 11.154-11.162h375.469c6.168.001 11.162 4.995 11.162 11.162z" fill="#774610"/><path d="M263.05 280.631c-10.027-11.28-3.663-33.312 14.218-49.231 17.881-15.896 114.003-85.008 124.062-73.767 10.012 11.296-69.908 98.721-87.788 114.617-17.85 15.888-40.465 19.645-50.492 8.381zm-21.977 0c10.027-11.28 3.663-33.312-14.218-49.231-17.881-15.896-114.034-85.008-124.062-73.767-10.012 11.296 69.892 98.721 87.757 114.617 17.881 15.888 40.496 19.645 50.523 8.381z" fill="#EFC286"/><path d="M228.218 361.913c0 19.503-15.817 124.668-35.336 124.668-19.495 0-35.304-105.173-35.304-124.668 0-19.495 15.817-35.32 35.304-35.32 19.519 0 35.336 15.825 35.336 35.32zm118.351 0c0 19.503-15.817 124.668-35.336 124.668-19.495 0-35.304-105.173-35.304-124.668 0-19.495 15.817-35.32 35.304-35.32 19.519 0 35.336 15.825 35.336 35.32z" fill="#960808"/><path d="M351.705 315.242c0 126.33-44.599 84.259-99.643 84.259-55.028 0-99.643 42.071-99.643-84.259 0-72.231 44.631-130.781 99.643-130.781 55.028.009 99.643 58.558 99.643 130.781z" fill="#CE1111"/><path d="M260.427 332.965c0 4.624-3.757 8.365-8.365 8.365a8.36 8.36 0 0 1-8.365-8.365V210.873a8.36 8.36 0 0 1 8.365-8.365c4.616 0 8.365 3.749 8.365 8.365v122.092z" fill="#EAA10F"/><ellipse cx="252.062" cy="231.55" rx="38.4" ry="31.996" fill="#EFC286"/><path d="M232.629 487.219c0 14.935-17.802 16.904-39.739 16.904s-39.755-1.961-39.755-16.904 17.818-35.509 39.755-35.509 39.739 20.567 39.739 35.509z" fill="#EFC286"/><path d="M232.629 487.219c0 14.935-17.802 16.904-39.739 16.904s-39.755-1.961-39.755-16.904" fill="#CE1111"/><path d="M350.972 487.219c0 14.935-17.786 16.904-39.723 16.904-21.937 0-39.739-1.961-39.739-16.904s17.802-35.509 39.739-35.509c21.937 0 39.723 20.567 39.723 35.509z" fill="#EFC286"/><path d="M350.972 487.219c0 14.935-17.786 16.904-39.723 16.904-21.937 0-39.739-1.961-39.739-16.904" fill="#CE1111"/><path d="M381.015 124.258c0 63.008-57.754 94.681-128.937 94.681-71.215 0-128.969-31.673-128.969-94.681C123.108 61.235 180.862 0 252.077 0c71.184 0 128.938 61.235 128.938 124.258z" fill="#EFC286"/><path d="M381.015 124.258c0 63.008-57.754 94.681-128.937 94.681-71.215 0-128.969-31.673-128.969-94.681" fill="#E8B374"/><g><path d="M213.496 112.49c-.63 0-1.245-.221-1.725-.717-5.632-5.624-13.107-8.72-21.047-8.72h-.016c-7.94 0-15.399 3.104-21 8.712a2.425 2.425 0 0 1-3.45.008 2.416 2.416 0 0 1-.016-3.419c6.538-6.546 15.218-10.161 24.458-10.161h.016c9.263 0 17.936 3.592 24.505 10.145.922.937.922 2.505 0 3.434-.465.498-1.079.718-1.725.718zm77.147 0a2.42 2.42 0 0 0 1.709-.717c5.632-5.624 13.107-8.72 21.047-8.72 7.956 0 15.431 3.104 21.016 8.712a2.405 2.405 0 0 0 3.434.008 2.388 2.388 0 0 0 .032-3.419c-6.506-6.546-15.218-10.161-24.474-10.161-9.248 0-17.952 3.592-24.521 10.145-.922.937-.922 2.505 0 3.434a2.416 2.416 0 0 0 1.757.718z" fill="#232728"/></g><g fill="#FFCE00"><circle cx="203.067" cy="249.305" r="5.577"/><circle cx="303.175" cy="249.305" r="5.577"/><circle cx="203.067" cy="273.566" r="5.577"/><circle cx="303.175" cy="273.566" r="5.577"/><circle cx="203.067" cy="297.826" r="5.577"/><circle cx="303.175" cy="297.826" r="5.577"/><circle cx="203.067" cy="322.166" r="5.577"/><circle cx="303.175" cy="322.166" r="5.577"/></g><g fill="#CE1111"><circle cx="238.521" cy="43.481" r="5.419"/><circle cx="238.521" cy="66.623" r="5.419"/><circle cx="238.521" cy="89.765" r="5.419"/><circle cx="265.61" cy="43.481" r="5.419"/><circle cx="265.61" cy="66.623" r="5.419"/><circle cx="265.61" cy="89.765" r="5.419"/></g></svg>