<svg xmlns="http://www.w3.org/2000/svg" viewBox="0 0 504.123 504.123"><path fill="#0A9B0A" d="M365.379 64.654L399.344 56.288 393.933 86.315 366.364 76.469 357.99 69.577z"/><path fill="#0A9B0A" d="M356.959 55.572L373.453 24.718 392.153 48.821 366.403 62.74 355.682 64.354z"/><path d="M263.05 280.631c-10.027-11.28-3.663-33.312 14.218-49.231 17.881-15.896 114.018-85.016 124.062-73.767 10.012 11.296-69.892 98.721-87.773 114.617-17.865 15.888-40.48 19.645-50.507 8.381zm-21.977 0c10.027-11.28 3.663-33.312-14.218-49.231-17.881-15.896-114.018-85.016-124.062-73.767-10.012 11.296 69.892 98.721 87.773 114.617 17.865 15.888 40.48 19.645 50.507 8.381z" fill="#D39B5E"/><path d="M228.218 361.913c0 19.503-15.817 124.668-35.336 124.668-19.495 0-35.304-105.173-35.304-124.668 0-19.495 15.817-35.32 35.304-35.32 19.519 0 35.336 15.825 35.336 35.32zm118.351 0c0 19.503-15.817 124.668-35.336 124.668-19.495 0-35.304-105.173-35.304-124.668 0-19.495 15.817-35.32 35.304-35.32 19.519 0 35.336 15.825 35.336 35.32z" fill="#70797A"/><path d="M351.705 315.242c0 126.33-44.599 84.259-99.643 84.259-55.028 0-99.643 42.071-99.643-84.259 0-72.231 44.631-130.781 99.643-130.781 55.028.009 99.643 58.558 99.643 130.781z" fill="#0A9B0A"/><path d="M252.062 184.47c-52.783 0-95.886 53.925-99.312 122.077 4.001 105.385 46.923 67.363 99.312 67.363 52.397 0 95.311 38.022 99.312-67.363-3.427-68.152-46.529-122.077-99.312-122.077z" fill="#13BF13"/><path d="M232.629 487.219c0 14.935-17.802 16.904-39.739 16.904s-39.739-1.961-39.739-16.904 17.802-35.509 39.739-35.509 39.739 20.567 39.739 35.509z" fill="#FFCE00"/><path d="M232.629 487.219c0 14.935-17.802 16.904-39.739 16.904s-39.739-1.961-39.739-16.904" fill="#EAA10F"/><path d="M350.988 487.219c0 14.935-17.802 16.904-39.739 16.904s-39.739-1.961-39.739-16.904 17.802-35.509 39.739-35.509 39.739 20.567 39.739 35.509z" fill="#FFCE00"/><path d="M350.988 487.219c0 14.935-17.802 16.904-39.739 16.904s-39.739-1.961-39.739-16.904" fill="#EAA10F"/><path d="M381.015 124.258c0 63.008-57.738 94.681-128.937 94.681-71.215 0-128.969-31.673-128.969-94.681C123.108 61.235 180.862 0 252.077 0c71.2 0 128.938 61.235 128.938 124.258z" fill="#EFC286"/><path d="M141.714 62.685H362.41C339.842 26.585 298.921 0 252.077 0c-46.875 0-87.78 26.585-110.363 62.685z" fill="#232728"/><path d="M381.015 124.258c0 63.008-57.738 94.681-128.937 94.681-71.215 0-128.969-31.673-128.969-94.681" fill="#E8B374"/><path d="M213.496 107.898a2.377 2.377 0 0 1-1.725-.717c-5.632-5.616-13.107-8.72-21.047-8.72h-.016c-7.94 0-15.399 3.104-21 8.712-.953.953-2.489.977-3.434.008a2.4 2.4 0 0 1-.031-3.419c6.538-6.546 15.218-10.161 24.458-10.161h.016c9.263 0 17.951 3.592 24.505 10.145.937.937.937 2.505 0 3.434-.466.498-1.08.718-1.726.718zm77.147 0c.599 0 1.229-.221 1.709-.717 5.632-5.616 13.107-8.72 21.047-8.72h.016c7.94 0 15.415 3.104 21.016 8.712a2.405 2.405 0 0 0 3.434.008c.953-.922.969-2.458.016-3.419-6.506-6.546-15.218-10.161-24.458-10.161h-.016c-9.248 0-17.936 3.592-24.505 10.145-.922.937-.922 2.505 0 3.434.48.498 1.095.718 1.741.718z" fill="#232728"/><path d="M131.686 67.466h240.742a123.352 123.352 0 0 0-3.765-6.27H135.467a118.717 118.717 0 0 0-3.781 6.27z" fill="#13BF13"/><path d="M276.11 128.567c-9.011-8.925-18.243-5.341-24.048-1.268-5.79-4.072-15.037-7.656-24.048 1.268-24.119 23.875-55.375 24.371-56.69 10.587 0 0 3.356 32.902 52.752 5.908 0 0 19.936-12.304 24.371-6.396 0 0 .016.024.032.031.922 1.528 2.127 2.678 3.584 2.568 1.465.11 2.662-1.04 3.584-2.568.016-.008.016-.016.032-.031 4.427-5.908 24.371 6.396 24.371 6.396 49.396 26.994 52.752-5.908 52.752-5.908-1.325 13.784-32.573 13.296-56.692-10.587z" fill="#232728"/><g fill="#FFCE00"><path d="M252.069 286.578c-9.964 0-18.015 8.05-18.015 17.999 0 9.941 8.05 17.991 18.015 17.991 9.925 0 17.983-8.05 17.983-17.991 0-9.949-8.058-17.999-17.983-17.999zm0 30.823c-7.073 0-12.855-5.75-12.855-12.824 0-7.073 5.774-12.832 12.855-12.832 7.058 0 12.816 5.75 12.816 12.832 0 7.066-5.758 12.824-12.816 12.824z"/><path d="M252.069 273.187c-17.353 0-31.397 14.052-31.397 31.39 0 17.329 14.045 31.39 31.397 31.39 17.321 0 31.39-14.06 31.39-31.39 0-17.337-14.068-31.39-31.39-31.39zm0 57.612c-14.462 0-26.238-11.768-26.238-26.222 0-14.462 11.776-26.222 26.238-26.222 14.438 0 26.214 11.76 26.214 26.222.001 14.454-11.775 26.222-26.214 26.222z"/><path d="M252.069 260.836c-24.174 0-43.756 19.574-43.756 43.741 0 24.143 19.574 43.741 43.756 43.741 24.151 0 43.717-19.59 43.717-43.741 0-24.159-19.566-43.741-43.717-43.741zm0 82.306c-21.283 0-38.581-17.306-38.581-38.565 0-21.268 17.298-38.565 38.581-38.565 21.26 0 38.558 17.298 38.558 38.565 0 21.26-17.298 38.565-38.558 38.565z"/><path d="M252.069 249.431c-30.46 0-55.162 24.694-55.162 55.146s24.702 55.138 55.162 55.138c30.436 0 55.138-24.686 55.138-55.138.001-30.452-24.701-55.146-55.138-55.146zm0 105.117c-27.569 0-49.987-22.418-49.987-49.971 0-27.553 22.418-49.979 49.987-49.979 27.538 0 49.971 22.426 49.971 49.979.001 27.553-22.433 49.971-49.971 49.971z"/></g></svg>