<svg xmlns="http://www.w3.org/2000/svg" viewBox="0 0 504.123 504.123"><path d="M263.05 280.631c-10.027-11.28-3.663-33.312 14.218-49.231 17.881-15.896 114.018-85.008 124.062-73.767 10.012 11.296-69.892 98.721-87.773 114.617-17.865 15.888-40.48 19.645-50.507 8.381z" fill="#87915A"/><path d="M241.073 280.631c10.027-11.28 3.663-33.312-14.218-49.231-17.881-15.896-114.018-85.008-124.062-73.767-10.012 11.296 69.892 98.721 87.773 114.617 17.865 15.888 40.48 19.645 50.507 8.381z" fill="#656B43"/><path d="M228.218 361.913c0 19.503-15.817 124.668-35.336 124.668-19.495 0-35.304-105.173-35.304-124.668 0-19.495 15.817-35.32 35.304-35.32 19.519 0 35.336 15.825 35.336 35.32zm118.351 0c0 19.503-15.817 124.668-35.336 124.668-19.495 0-35.304-105.173-35.304-124.668 0-19.495 15.817-35.32 35.304-35.32 19.519 0 35.336 15.825 35.336 35.32z" fill="#3D7034"/><path d="M351.705 315.242c0 126.33-44.599 84.259-99.643 84.259-55.028 0-99.643 42.071-99.643-84.259 0-72.231 44.631-130.781 99.643-130.781 55.028.009 99.643 58.558 99.643 130.781z" fill="#87915A"/><path fill="#363B7F" d="M263.129 224.658L228.801 272.408 210.219 224.658 236.678 198.191z"/><path d="M232.629 487.219c0 14.935-17.802 16.904-39.739 16.904s-39.739-1.961-39.739-16.904 17.802-35.509 39.739-35.509 39.739 20.567 39.739 35.509z" fill="#3D3C39"/><path d="M232.629 487.219c0 14.935-17.802 16.904-39.739 16.904s-39.739-1.961-39.739-16.904" fill="#1C1B1A"/><path d="M350.988 487.219c0 14.935-17.802 16.904-39.739 16.904s-39.739-1.961-39.739-16.904 17.802-35.509 39.739-35.509 39.739 20.567 39.739 35.509z" fill="#3D3C39"/><path d="M350.988 487.219c0 14.935-17.802 16.904-39.739 16.904s-39.739-1.961-39.739-16.904" fill="#1C1B1A"/><path d="M381.015 124.258c0 63.008-57.738 94.681-128.937 94.681-71.215 0-128.969-31.673-128.969-94.681C123.108 61.235 180.862 0 252.077 0c71.2 0 128.938 61.235 128.938 124.258z" fill="#EFC286"/><path d="M381.015 124.258c0 63.008-57.738 94.681-128.937 94.681-71.215 0-128.969-31.673-128.969-94.681" fill="#E8B374"/><path d="M196.907 140.06a2.415 2.415 0 0 1-1.725-.717c-5.624-5.624-13.107-8.72-21.031-8.72h-.024c-7.948 0-15.392 3.104-21 8.712-.945.953-2.489.977-3.426.008-.969-.922-.985-2.458-.047-3.419 6.546-6.546 15.218-10.161 24.466-10.161h.024c9.247 0 17.936 3.592 24.489 10.145.953.937.953 2.505 0 3.434-.457.497-1.08.718-1.726.718zm77.163 0c.591 0 1.221-.221 1.709-.717 5.632-5.624 13.107-8.72 21.039-8.72h.016c7.956 0 15.423 3.104 21.016 8.712a2.405 2.405 0 0 0 3.434.008 2.395 2.395 0 0 0 .024-3.419c-6.498-6.546-15.21-10.161-24.466-10.161h-.016c-9.24 0-17.928 3.592-24.505 10.145-.922.937-.922 2.505 0 3.434.48.497 1.103.718 1.749.718z" fill="#232728"/><path d="M232.905 232.369c79.754 2.292 148.11-45.103 148.11-108.111 0-27.829-11.296-55.288-29.987-77.296l-26.726 3.907s11.815 76.8 35.446 81.723c0 0 3.45 43.323-25.112 59.077-28.562 15.754-41.842 24.127-90.088 22.158l-10.342-16.25-11.815 15.754s-17.384 3.608-56.288-14.438c6.585 1.977 5.191 12.847 13.619 15.423 12.491 9.349 38.697 17.636 53.183 18.053z" fill="#59472E"/><path d="M146.755 55.138h210.613C334.029 22.945 295.605 0 252.077 0c-43.535 0-81.967 22.945-105.322 55.138z" fill="#A50C59"/><path d="M252.077 0c-36.013 0-68.521 15.73-91.908 39.385h183.784C320.583 15.73 288.091 0 252.077 0z" fill="#C11162"/><g fill="#59472E"><path d="M232.015 164.596s-18.826.63-26.797 2.552c-7.971 1.906-7.656 17.219-7.656 20.094 0 0 3.513-13.399 13.714-11.8 10.201 1.591 17.235 3.82 20.417-1.599 3.181-5.419.322-9.247.322-9.247z"/><path d="M231.928 164.596s18.826.63 26.789 2.552c7.971 1.906 7.664 17.219 7.664 20.094 0 0-3.513-13.399-13.722-11.8-10.201 1.591-17.227 3.82-20.417-1.599-3.181-5.419-.314-9.247-.314-9.247z"/></g></svg>