<svg xmlns="http://www.w3.org/2000/svg" viewBox="0 0 504.123 504.123"><path d="M263.042 280.631c-10.027-11.28-3.663-33.312 14.226-49.231 17.873-15.896 114.003-85.016 124.062-73.767 10.012 11.296-69.908 98.721-87.788 114.617-17.85 15.888-40.473 19.645-50.5 8.381zm-21.969 0c10.027-11.28 3.663-33.312-14.218-49.231-17.881-15.896-114.026-85.016-124.062-73.767-10.012 11.296 69.892 98.721 87.765 114.617s40.488 19.645 50.515 8.381z" fill="#CE1111"/><path d="M228.21 361.913c0 19.503-15.817 124.668-35.336 124.668-19.495 0-35.304-105.173-35.304-124.668 0-19.495 15.817-35.32 35.304-35.32 19.519 0 35.336 15.825 35.336 35.32zm118.359 0c0 19.503-15.809 124.668-35.336 124.668-19.495 0-35.304-105.173-35.304-124.668 0-19.495 15.817-35.32 35.304-35.32 19.527 0 35.336 15.825 35.336 35.32z" fill="#960808"/><path d="M351.705 315.242c0 126.33-44.599 84.259-99.643 84.259-55.028 0-99.643 42.071-99.643-84.259 0-72.231 44.631-130.788 99.643-130.788 55.028.008 99.643 58.565 99.643 130.788z" fill="#CE1111"/><path d="M260.427 332.965a8.365 8.365 0 0 1-8.365 8.365 8.365 8.365 0 0 1-8.365-8.365V210.873a8.365 8.365 0 0 1 8.365-8.365 8.365 8.365 0 0 1 8.365 8.365v122.092z" fill="#EAA10F"/><path d="M232.629 487.219c0 14.935-17.802 16.904-39.739 16.904s-39.747-1.961-39.747-16.904 17.81-35.509 39.747-35.509 39.739 20.567 39.739 35.509z" fill="#FFCE00"/><path d="M232.629 487.219c0 14.935-17.802 16.904-39.739 16.904s-39.747-1.961-39.747-16.904" fill="#EAA10F"/><path d="M350.972 487.219c0 14.935-17.794 16.904-39.731 16.904s-39.739-1.961-39.739-16.904 17.802-35.509 39.739-35.509 39.731 20.567 39.731 35.509z" fill="#FFCE00"/><path d="M350.972 487.219c0 14.935-17.794 16.904-39.731 16.904s-39.739-1.961-39.739-16.904" fill="#EAA10F"/><path d="M381.015 124.258c0 63.008-57.746 94.681-128.937 94.681-71.215 0-128.969-31.673-128.969-94.681C123.101 61.235 180.854 0 252.069 0c71.2 0 128.946 61.235 128.946 124.258z" fill="#EFC286"/><path d="M381.015 124.258c0 63.008-57.746 94.681-128.937 94.681-71.215 0-128.969-31.673-128.969-94.681" fill="#E8B374"/><path d="M213.488 141.871a2.365 2.365 0 0 1-1.725-.717c-5.632-5.624-13.107-8.72-21.047-8.72h-.016c-7.94 0-15.399 3.104-21 8.712-.953.953-2.489.977-3.442.008a2.409 2.409 0 0 1-.024-3.419c6.538-6.546 15.218-10.161 24.458-10.161h.016c9.263 0 17.944 3.592 24.513 10.145.922.937.922 2.505 0 3.434-.472.49-1.087.718-1.733.718zm77.155 0c.591 0 1.221-.221 1.717-.717 5.624-5.624 13.099-8.72 21.039-8.72h.008c7.948 0 15.423 3.104 21.016 8.712a2.405 2.405 0 0 0 3.434.008 2.395 2.395 0 0 0 .024-3.419c-6.506-6.546-15.218-10.161-24.466-10.161h-.008c-9.247 0-17.944 3.592-24.513 10.145-.922.937-.922 2.505 0 3.434.488.49 1.103.718 1.749.718z" fill="#232728"/><path d="M280.482 161.871c0 19.803-12.737 35.879-28.42 35.879-15.691 0-28.436-16.077-28.436-35.879 0-19.834 12.745-7.987 28.436-7.987 15.683 0 28.42-11.847 28.42 7.987z" fill="#870E0E"/><path d="M252.054 168.763c-9.318 0-17.51 5.742-22.701 14.486 5.191 8.751 13.391 14.501 22.709 14.501s17.518-5.742 22.701-14.486c-5.191-8.759-13.391-14.501-22.709-14.501z" fill="#AA1111"/><path d="M134.144 76.469h235.827C349.956 33.532 304.727 0 252.069 0c-52.665 0-97.894 33.532-117.925 76.469z" fill="#EAA10F"/><path d="M252.069 0c-44.56 0-83.732 24.04-106.882 57.431h213.748C335.785 24.04 296.621 0 252.069 0z" fill="#CE1111"/><path d="M252.069 0c-44.56 0-83.732 24.04-106.882 57.431" fill="#E80C0C"/><g fill="#FFCE00"><path d="M139.083 66.954H365.04s-3.19-6.034-6.105-9.523H145.188c-2.293 3.284-6.105 9.523-6.105 9.523zm147.031 182.319a3.444 3.444 0 0 1-3.45 3.45h-59.077a3.444 3.444 0 0 1-3.45-3.45 3.444 3.444 0 0 1 3.45-3.45h59.077a3.444 3.444 0 0 1 3.45 3.45z"/><circle cx="203.067" cy="249.305" r="5.577"/><circle cx="303.183" cy="249.305" r="5.577"/><path d="M286.114 273.558a3.444 3.444 0 0 1-3.45 3.45h-59.077a3.444 3.444 0 0 1-3.45-3.45 3.444 3.444 0 0 1 3.45-3.45h59.077a3.453 3.453 0 0 1 3.45 3.45z"/><circle cx="203.067" cy="273.566" r="5.577"/><circle cx="303.183" cy="273.566" r="5.577"/><path d="M286.114 297.85a3.444 3.444 0 0 1-3.45 3.45h-59.077a3.444 3.444 0 0 1-3.45-3.45 3.444 3.444 0 0 1 3.45-3.45h59.077a3.454 3.454 0 0 1 3.45 3.45z"/><circle cx="203.067" cy="297.826" r="5.577"/><circle cx="303.183" cy="297.826" r="5.577"/><path d="M286.114 322.143a3.444 3.444 0 0 1-3.45 3.45h-59.077a3.444 3.444 0 0 1-3.45-3.45 3.444 3.444 0 0 1 3.45-3.45h59.077a3.453 3.453 0 0 1 3.45 3.45z"/><circle cx="203.067" cy="322.166" r="5.577"/><circle cx="303.183" cy="322.166" r="5.577"/></g></svg>