<svg xmlns="http://www.w3.org/2000/svg" viewBox="0 0 504.123 504.123"><path d="M373.506 66.631c0 5.435-4.403 9.846-9.838 9.846h-66.3c-5.435 0-9.846-4.411-9.846-9.846 0-5.435 4.411-9.846 9.846-9.846h66.3c5.443 0 9.838 4.411 9.838 9.846z" fill="#093C84"/><path d="M308.632 361.913c0 19.503-15.817 124.668-35.336 124.668-19.495 0-35.304-105.173-35.304-124.668 0-19.495 15.817-35.32 35.304-35.32 19.519 0 35.336 15.825 35.336 35.32zm-118.351 0c0 19.503-15.817 124.668-35.336 124.668-19.495 0-35.304-105.173-35.304-124.668 0-19.495 15.817-35.32 35.304-35.32 19.519 0 35.336 15.825 35.336 35.32z" fill="#232728"/><path d="M130.212 432.569c6.372 28.333 15.1 54.012 24.734 54.012 9.649 0 18.385-25.687 24.765-54.012h-49.499zm118.351 0c6.372 28.333 15.1 54.012 24.734 54.012 9.649 0 18.385-25.687 24.765-54.012h-49.499z" fill="#BC8158"/><path d="M313.768 315.242c0 126.33-44.599 84.259-99.643 84.259-55.028 0-99.643 42.071-99.643-84.259 0-72.231 44.631-130.781 99.643-130.781 55.028.009 99.643 58.558 99.643 130.781z" fill="#DD3A14"/><path d="M248.476 214.315c11.28-10.027 33.311-3.663 49.231 14.218 15.896 17.881 85.016 114.018 73.767 124.062-11.288 10.012-98.721-69.892-114.609-87.773-15.896-17.857-19.645-40.479-8.389-50.507z" fill="#DD3A14"/><path d="M214.125 348.31c-49.554 0-90.64 34.036-98.336-51.389-.843 5.104-1.308 11.138-1.308 18.33 0 126.33 44.615 84.259 99.643 84.259 55.044 0 99.643 42.071 99.643-84.259 0-7.192-.465-13.225-1.308-18.33-7.687 85.425-48.765 51.389-98.334 51.389z" fill="#BC2A0D"/><path d="M194.692 487.219c0 14.935-17.802 16.904-39.739 16.904s-39.739-1.961-39.739-16.904 17.802-35.509 39.739-35.509 39.739 20.567 39.739 35.509z" fill="#EFA30C"/><path d="M194.692 487.219c0 14.935-17.802 16.904-39.739 16.904s-39.739-1.961-39.739-16.904" fill="#D68A05"/><path d="M313.051 487.219c0 14.935-17.802 16.904-39.739 16.904s-39.739-1.961-39.739-16.904 17.802-35.509 39.739-35.509 39.739 20.567 39.739 35.509z" fill="#EFA30C"/><path d="M313.051 487.219c0 14.935-17.802 16.904-39.739 16.904s-39.739-1.961-39.739-16.904" fill="#D68A05"/><path d="M224.593 231.219c-.89-15.061-20.968-26.136-44.859-24.757-23.883 1.402-140.745 20.512-139.894 35.564.906 15.069 119.233 20.385 143.108 18.983 23.859-1.393 42.512-14.729 41.645-29.79z" fill="#DD3A14"/><circle cx="214.125" cy="211.361" r="26.585" fill="#A56B44"/><path d="M343.078 124.258c0 63.008-57.738 94.681-128.937 94.681-71.215 0-128.969-31.673-128.969-94.681C85.172 61.235 142.925 0 214.14 0c71.2 0 128.938 61.235 128.938 124.258z" fill="#C48960"/><path d="M343.078 124.258c0 63.008-57.738 94.681-128.937 94.681-71.215 0-128.969-31.673-128.969-94.681" fill="#BC8158"/><circle cx="167.241" cy="144.959" r="11.532" fill="#113E49"/><path d="M178.781 144.959c0 6.388-5.167 11.54-11.54 11.54s-11.532-5.152-11.532-11.54"/><path d="M189.99 169.015a2.34 2.34 0 0 1-1.709-.717c-5.648-5.624-13.123-8.72-21.055-8.72h-.016c-7.948 0-15.399 3.104-21 8.712-.953.953-2.489.977-3.434.008a2.402 2.402 0 0 1-.032-3.419c6.538-6.546 15.21-10.161 24.458-10.161h.016c9.263 0 17.952 3.592 24.505 10.145.937.937.937 2.505 0 3.434-.465.498-1.087.718-1.733.718z" fill="#E5A376"/><circle cx="289.869" cy="144.959" r="11.532" fill="#113E49"/><path d="M278.361 144.959c0 6.388 5.151 11.54 11.532 11.54a11.52 11.52 0 0 0 11.532-11.54"/><path d="M267.152 169.015c.599 0 1.229-.221 1.709-.717 5.632-5.624 13.107-8.72 21.039-8.72h.024c7.94 0 15.415 3.104 21.016 8.712a2.405 2.405 0 0 0 3.434.008c.953-.922.969-2.458.016-3.419-6.506-6.546-15.218-10.161-24.458-10.161h-.024c-9.24 0-17.92 3.592-24.497 10.145-.922.937-.922 2.505 0 3.434.473.498 1.087.718 1.741.718z" fill="#E5A376"/><path d="M262.647 174.994c0 13.013-14.423 23.568-32.248 23.568-17.794 0-32.217-10.555-32.217-23.568 0-12.997 14.423-6.688 32.217-6.688 17.825 0 32.248-6.317 32.248 6.688z" fill="#7A0B0B"/><path d="M205.452 189.731c5.908 5.341 14.832 8.83 24.954 8.83 10.145 0 19.078-3.482 24.986-8.83-5.908-5.341-14.84-8.83-24.97-8.83-10.145 0-19.062 3.482-24.97 8.83z" fill="#AA1111"/><path d="M107.314 57.108h213.638C297.77 23.851 258.574 0 214.14 0c-44.449 0-83.637 23.851-106.826 57.108z" fill="#1679DB"/><path d="M214.14 0c-44.449 0-83.637 23.851-106.827 57.108" fill="#2B9BF7"/><path d="M204.814 40.7a6.562 6.562 0 0 1-6.561 6.561h-26.27a6.56 6.56 0 0 1-6.554-6.561 6.56 6.56 0 0 1 6.554-6.561h26.27a6.562 6.562 0 0 1 6.561 6.561z"/><circle cx="392.742" cy="395.343" r="71.522" fill="#EF8A11"/><path d="M443.327 344.757c27.947 27.939 27.947 73.24 0 101.187-27.939 27.947-73.247 27.947-101.187 0" fill="#CC6D05"/><g fill="#994C00"><path d="M336.556 351.13c10.531 11.752 16.998 27.231 16.998 44.213 0 16.983-6.467 32.461-16.998 44.221a70.993 70.993 0 0 0 6.971 7.625c12.564-13.659 20.244-31.87 20.244-51.846 0-19.976-7.688-38.187-20.244-51.846a72.599 72.599 0 0 0-6.971 7.633zm95.358 44.213c0-16.983 6.451-32.461 16.991-44.213a71.77 71.77 0 0 0-6.963-7.633c-12.564 13.659-20.252 31.87-20.252 51.846 0 19.401 7.231 37.636 20.291 51.814a73.223 73.223 0 0 0 6.908-7.57c-10.934-12.193-16.975-27.734-16.975-44.244z"/><path d="M321.188 395.343c0 1.733.142 3.419.26 5.104h142.58c.126-1.694.26-3.379.26-5.104s-.142-3.419-.26-5.104h-142.58c-.126 1.693-.26 3.387-.26 5.104z"/><path d="M387.622 324.057v142.588c1.701.126 3.387.252 5.104.252s3.419-.134 5.112-.252V324.057c-1.701-.118-3.395-.26-5.112-.26s-3.403.141-5.104.26z"/></g><path d="M270.965 305.081c0-1.189-.102-2.371-.173-3.537h-22.079c.803-10.358 5.049-19.771 11.603-27.081a50.967 50.967 0 0 0-4.813-5.285c-7.956 8.649-13.028 19.929-13.863 32.366h-16.683v-45.836c-1.174-.087-2.355-.181-3.545-.181s-2.363.102-3.537.181v45.836h-16.699a52.83 52.83 0 0 0-13.848-32.366 48.648 48.648 0 0 0-4.829 5.285c6.554 7.318 10.799 16.723 11.611 27.081h-22.08c-.095 1.166-.181 2.347-.181 3.537 0 1.197.095 2.371.181 3.537h22.071c-.811 10.358-5.057 19.771-11.611 27.089a49.478 49.478 0 0 0 4.829 5.278 52.898 52.898 0 0 0 13.848-32.366h16.691v45.844c1.174.087 2.347.173 3.537.173 1.189 0 2.371-.095 3.545-.173v-45.836h16.675c.811 12.107 5.648 23.402 13.887 32.35a48.71 48.71 0 0 0 4.789-5.246c-6.79-7.57-10.823-16.998-11.603-27.104h22.087c.087-1.175.19-2.341.19-3.546z" fill="#FC7459"/></svg>