<svg xmlns="http://www.w3.org/2000/svg" viewBox="0 0 504.123 504.123"><path d="M289.541 214.315c11.28-10.027 33.311-3.663 49.231 14.218 15.896 17.881 85.016 114.018 73.767 124.062-11.296 10.012-98.721-69.892-114.617-87.773-15.888-17.857-19.645-40.479-8.381-50.507zm-23.875 16.904c-.906-15.061-20.984-26.136-44.859-24.757-23.891 1.402-140.737 20.512-139.894 35.564.906 15.069 119.233 20.385 143.108 18.983 23.859-1.393 42.504-14.729 41.645-29.79z" fill="#AF764F"/><path d="M231.338 361.913c0 19.503-15.817 124.668-35.336 124.668-19.495 0-35.304-105.173-35.304-124.668 0-19.495 15.817-35.32 35.304-35.32 19.519 0 35.336 15.825 35.336 35.32zm118.359 0c0 19.503-15.817 124.668-35.336 124.668-19.495 0-35.304-105.173-35.304-124.668 0-19.495 15.817-35.32 35.304-35.32 19.519 0 35.336 15.825 35.336 35.32z" fill="#232728"/><path d="M355.817 310.319c0 126.33-44.599 84.259-99.643 84.259-55.028 0-99.643 42.071-99.643-84.259 0-72.231 44.631-130.781 99.643-130.781 55.028.009 99.643 58.558 99.643 130.781z" fill="#C48960"/><path d="M235.757 487.219c0 14.935-17.802 16.904-39.739 16.904s-39.739-1.961-39.739-16.904 17.802-35.509 39.739-35.509 39.739 20.567 39.739 35.509z" fill="#EFA30C"/><path d="M235.757 487.219c0 14.935-17.802 16.904-39.739 16.904s-39.739-1.961-39.739-16.904" fill="#D68A05"/><path d="M354.108 487.219c0 14.935-17.802 16.904-39.739 16.904s-39.739-1.961-39.739-16.904 17.802-35.509 39.739-35.509 39.739 20.567 39.739 35.509z" fill="#EFA30C"/><path d="M354.108 487.219c0 14.935-17.802 16.904-39.739 16.904s-39.739-1.961-39.739-16.904" fill="#D68A05"/><path d="M384.143 124.258c0 63.008-57.738 94.681-128.937 94.681-71.215 0-128.969-31.673-128.969-94.681C126.237 61.235 183.99 0 255.205 0c71.2 0 128.938 61.235 128.938 124.258z" fill="#D8A17C"/><path d="M384.143 124.258c0 63.008-57.738 94.681-128.937 94.681-71.215 0-128.969-31.673-128.969-94.681 0-63.023 57.754-111.789 128.969-111.789 71.199 0 128.937 48.766 128.937 111.789z" fill="#C48960"/><path d="M384.143 124.258c0 63.008-57.738 94.681-128.937 94.681-71.215 0-128.969-31.673-128.969-94.681" fill="#BC8158"/><circle cx="212.898" cy="137.744" r="11.532" fill="#113E49"/><path d="M224.43 137.744c0 6.388-5.167 11.54-11.54 11.54-6.372 0-11.524-5.152-11.524-11.54"/><path d="M235.647 161.8a2.377 2.377 0 0 1-1.725-.717c-5.632-5.624-13.107-8.72-21.047-8.72h-.016c-7.94 0-15.399 3.104-21 8.712-.953.953-2.489.977-3.434.008a2.402 2.402 0 0 1-.032-3.419c6.538-6.546 15.218-10.161 24.458-10.161h.016c9.263 0 17.952 3.592 24.505 10.145.937.937.937 2.505 0 3.434-.465.497-1.079.718-1.725.718z" fill="#E5A376"/><circle cx="335.558" cy="137.744" r="11.532" fill="#113E49"/><path d="M324.018 137.744a11.52 11.52 0 0 0 11.54 11.54c6.372 0 11.524-5.152 11.524-11.54"/><path d="M312.801 161.8c.599 0 1.229-.221 1.709-.717 5.632-5.624 13.107-8.72 21.047-8.72h.016c7.94 0 15.415 3.104 21.016 8.712a2.405 2.405 0 0 0 3.434.008c.953-.922.969-2.458.016-3.419-6.506-6.546-15.218-10.161-24.458-10.161h-.024c-9.247 0-17.936 3.592-24.505 10.145-.922.937-.922 2.505 0 3.434a2.392 2.392 0 0 0 1.749.718z" fill="#E5A376"/><path d="M299.71 175.915c0 6.522-11.169-2.623-24.954-2.623-13.769 0-24.938 9.145-24.938 2.623 0-6.522 11.169-11.815 24.938-11.815 13.785 0 24.954 5.293 24.954 11.815z" fill="#870808"/><path d="M160.044 360.038c11.54 63.779 50.184 41.031 96.122 41.031 45.954 0 84.598 22.749 96.122-41.031H160.044z" fill="#232728"/><path d="M115.264 254.362c0 4.356-3.537 7.877-7.877 7.877a7.87 7.87 0 0 1-7.877-7.877v-28.893c0-4.34 3.521-7.877 7.877-7.877 4.34 0 7.877 3.537 7.877 7.877v28.893z" fill="#D1B869"/><path d="M107.371 256.654c0 8.696-7.05 15.754-15.754 15.754H65.033c-8.696 0-15.754-7.058-15.754-15.754v-33.477c0-8.696 7.058-15.754 15.754-15.754h26.585c8.704 0 15.754 7.058 15.754 15.754v33.477z" fill="#870808"/><path d="M87.679 256.654v-33.477c0-8.696-7.05-15.754-15.754-15.754h-6.892c-8.696 0-15.754 7.058-15.754 15.754v33.477c0 8.696 7.058 15.754 15.754 15.754h6.892c8.704 0 15.754-7.05 15.754-15.754z" fill="#B70F0F"/><path d="M401.952 317.637a7.868 7.868 0 0 1 11.138 0 7.868 7.868 0 0 1 0 11.138l-20.433 20.433c-3.064 3.072-8.058 3.08-11.138 0s-3.064-8.066 0-11.138l20.433-20.433z" fill="#D1B869"/><path d="M409.152 321.591c6.152-6.152 16.124-6.152 22.276 0l18.802 18.802c6.152 6.152 6.152 16.124 0 22.276l-23.678 23.67c-6.152 6.152-16.124 6.152-22.276.008l-18.802-18.802c-6.152-6.152-6.152-16.132 0-22.284l23.678-23.67z" fill="#870808"/><path d="M423.078 335.518L399.4 359.196c-6.136 6.144-6.152 16.124 0 22.276l4.876 4.876c6.152 6.144 16.124 6.144 22.276-.008l23.678-23.67c6.152-6.152 6.152-16.124 0-22.276l-4.876-4.876c-6.152-6.16-16.124-6.16-22.276 0z" fill="#B70F0F"/><ellipse cx="256.08" cy="354.627" rx="69.908" ry="29.05" fill="#EFA30C"/><path d="M256.048 325.577c38.613 0 69.908 12.997 69.908 29.05s-31.295 29.05-69.908 29.05" fill="#D68A05"/></svg>