<svg xmlns="http://www.w3.org/2000/svg" viewBox="0 0 504.123 504.123"><path d="M256.654 239.159c-.866 15.061-20.96 26.128-44.851 24.757-23.875-1.41-140.745-20.504-139.894-35.564.906-15.069 119.233-20.385 143.108-18.976 23.866 1.387 42.511 14.722 41.637 29.783z" fill="#FF6D00"/><path d="M247.469 232.952c.874-15.061 20.953-26.12 44.859-24.757 23.875 1.418 140.737 20.512 139.886 35.572-.906 15.061-119.233 20.385-143.108 18.968-23.874-1.379-42.519-14.722-41.637-29.783z" fill="#FF6D00"/><path d="M229.415 361.913c0 19.503-15.817 124.668-35.336 124.668-19.495 0-35.304-105.173-35.304-124.668 0-19.495 15.817-35.32 35.304-35.32 19.52 0 35.336 15.825 35.336 35.32zm118.351 0c0 19.503-15.817 124.668-35.336 124.668-19.495 0-35.304-105.173-35.304-124.668 0-19.495 15.817-35.32 35.304-35.32 19.527 0 35.336 15.825 35.336 35.32z" fill="#232728"/><path d="M352.91 315.242c0 126.33-44.599 84.259-99.643 84.259-55.028 0-99.643 42.071-99.643-84.259 0-72.231 44.631-130.788 99.643-130.788 55.028.008 99.643 58.565 99.643 130.788z" fill="#FF6D00"/><path d="M179.042 228.194c21 9.539 46.568 14.375 74.232 14.375 27.648 0 53.209-4.836 74.201-14.367-18.243-26.782-44.694-43.741-74.216-43.741-29.515.001-55.958 16.952-74.217 43.733z" fill="#DB410B"/><path d="M233.834 487.219c0 14.935-17.802 16.904-39.739 16.904s-39.739-1.961-39.739-16.904 17.802-35.509 39.739-35.509 39.739 20.567 39.739 35.509z" fill="#8D97A0"/><path d="M233.834 487.219c0 14.935-17.802 16.904-39.739 16.904s-39.739-1.961-39.739-16.904" fill="#79848C"/><path d="M352.185 487.219c0 14.935-17.802 16.904-39.739 16.904-21.937 0-39.739-1.961-39.739-16.904s17.802-35.509 39.739-35.509c21.937 0 39.739 20.567 39.739 35.509z" fill="#8D97A0"/><path d="M352.185 487.219c0 14.935-17.802 16.904-39.739 16.904-21.937 0-39.739-1.961-39.739-16.904" fill="#79848C"/><path d="M382.212 124.258c0 63.008-57.738 94.681-128.937 94.681-71.215 0-128.969-31.673-128.969-94.681C124.306 61.235 182.059 0 253.275 0c71.199 0 128.937 61.235 128.937 124.258z" fill="#CE5715"/><path d="M382.212 124.258c0 63.008-57.738 94.681-128.937 94.681-71.215 0-128.969-31.673-128.969-94.681 0-63.023 57.754-72.405 128.969-72.405 71.199.001 128.937 9.382 128.937 72.405z" fill="#F9A9A0"/><path d="M382.212 124.258c0 63.008-57.738 94.681-128.937 94.681-71.215 0-128.969-31.673-128.969-94.681" fill="#FF9997"/><circle cx="191.945" cy="154.151" r="11.532" fill="#113E49"/><path d="M203.477 154.151c0 6.388-5.167 11.54-11.54 11.54s-11.524-5.152-11.524-11.54"/><path d="M214.693 178.208a2.377 2.377 0 0 1-1.725-.717c-5.632-5.624-13.107-8.72-21.047-8.72h-.016c-7.94 0-15.399 3.104-21 8.712-.953.953-2.489.977-3.434.008a2.402 2.402 0 0 1-.032-3.419c6.538-6.546 15.218-10.161 24.458-10.161h.016c9.263 0 17.952 3.592 24.505 10.145.937.937.937 2.505 0 3.434-.464.497-1.079.718-1.725.718z" fill="#FFD3C5"/><circle cx="314.604" cy="154.151" r="11.532" fill="#113E49"/><path d="M303.065 154.151a11.52 11.52 0 0 0 11.54 11.54c6.372 0 11.524-5.152 11.524-11.54"/><path d="M291.848 178.208c.599 0 1.229-.221 1.709-.717 5.632-5.624 13.107-8.72 21.047-8.72h.016c7.94 0 15.415 3.104 21.016 8.712a2.405 2.405 0 0 0 3.434.008c.953-.922.969-2.458.016-3.419-6.506-6.546-15.218-10.161-24.458-10.161h-.016c-9.247 0-17.936 3.592-24.505 10.145-.922.937-.922 2.505 0 3.434.481.497 1.095.718 1.741.718z" fill="#FFD3C5"/><path d="M268.895 170.685c0 13.816-7.003 25.064-15.628 25.064-8.617 0-15.628-11.248-15.628-25.064 0-13.848 7.018-5.585 15.628-5.585 8.625 0 15.628-8.263 15.628 5.585z" fill="#870E0E"/><path d="M253.243 173.158c-5.443 0-10.232 4.49-13.028 11.264 2.796 6.806 7.601 11.327 13.044 11.327s10.232-4.49 13.028-11.264c-2.796-6.805-7.593-11.327-13.044-11.327z" fill="#AA1111"/><path d="M253.275 0c-37.305 0-70.821 17.55-94.366 42.622 5.813 18.29 22.922 32.209 43.15 32.209h102.4c20.228 0 37.344-13.919 43.158-32.224C324.08 17.542 290.572 0 253.275 0z" fill="#CE5715"/><path d="M290.462 293.006l-37.195-37.195-37.203 37.195-37.203-37.195-20.834 20.834c-2.867 12.201-4.427 25.159-4.427 38.597 0 5.388.11 10.358.26 15.147l24.993-24.986 37.092 37.092.11-.102.102.102 37.1-37.092 37.085 37.092.11-.102.11.102 37.085-37.092 24.986 24.986c.165-4.781.268-9.759.268-15.147 0-13.438-1.552-26.403-4.427-38.605L327.64 255.81l-37.178 37.196z" fill="#11D3C0"/><path d="M327.656 278.465l-37.195 37.195-37.195-37.195-37.203 37.195-37.203-37.195-20.834 20.834c-2.261 9.618-3.671 19.716-4.175 30.137.008.315.016.646.016.961l24.993-24.986 37.092 37.092.11-.102.102.102 37.1-37.092 37.085 37.092.11-.102.11.102 37.085-37.092 24.986 24.986c.008-.315.008-.646.024-.961-.504-10.421-1.914-20.519-4.175-30.145l-20.833-20.826z" fill="#05B8C1"/></svg>