<svg xmlns="http://www.w3.org/2000/svg" viewBox="0 0 504.123 504.123"><path d="M263.05 280.631c-10.027-11.28-3.663-33.312 14.226-49.231 17.873-15.896 114.003-85.008 124.054-73.767 10.012 11.296-69.9 98.721-87.78 114.617-17.858 15.888-40.473 19.645-50.5 8.381zm-21.977 0c10.027-11.28 3.663-33.312-14.218-49.231-17.881-15.896-114.026-85.008-124.062-73.767-10.012 11.296 69.892 98.721 87.765 114.617s40.488 19.645 50.515 8.381z" fill="#AF5145"/><path d="M228.218 361.913c0 19.503-15.817 124.668-35.336 124.668-19.495 0-35.304-105.173-35.304-124.668 0-19.495 15.817-35.32 35.304-35.32 19.519 0 35.336 15.825 35.336 35.32zm118.351 0c0 19.503-15.809 124.668-35.336 124.668-19.495 0-35.304-105.173-35.304-124.668 0-19.495 15.817-35.32 35.304-35.32 19.527 0 35.336 15.825 35.336 35.32z" fill="#1267CC"/><path d="M351.705 315.242c0 126.33-44.599 84.259-99.643 84.259-55.028 0-99.643 42.071-99.643-84.259 0-72.231 44.631-130.781 99.643-130.781 55.028.009 99.643 58.558 99.643 130.781z" fill="#9B3F38"/><path d="M252.062 184.47c-51.665 0-94.153 51.633-99.147 117.729 5.025 99.895 47.498 62.85 99.147 62.85 51.665 0 94.121 37.045 99.139-62.85-4.987-66.096-47.459-117.729-99.139-117.729z" fill="#AF5145"/><path d="M257.481 365.458a5.419 5.419 0 0 1-5.419 5.419 5.414 5.414 0 0 1-5.419-5.419V238.442a5.414 5.414 0 0 1 5.419-5.419 5.419 5.419 0 0 1 5.419 5.419v127.016z" fill="#3D3C39"/><ellipse cx="252.062" cy="202.831" rx="69.585" ry="45.292" fill="#990707"/><path d="M232.629 487.219c0 14.935-17.802 16.904-39.739 16.904s-39.747-1.961-39.747-16.904 17.81-35.509 39.747-35.509 39.739 20.567 39.739 35.509z" fill="#3D3C39"/><path d="M232.629 487.219c0 14.935-17.802 16.904-39.739 16.904s-39.747-1.961-39.747-16.904" fill="#1C1B1A"/><path d="M350.98 487.219c0 14.935-17.794 16.904-39.731 16.904s-39.739-1.961-39.739-16.904 17.802-35.509 39.739-35.509 39.731 20.567 39.731 35.509z" fill="#3D3C39"/><path d="M350.98 487.219c0 14.935-17.794 16.904-39.731 16.904s-39.739-1.961-39.739-16.904" fill="#1C1B1A"/><path d="M381.015 124.258c0 63.008-57.746 94.681-128.937 94.681-71.215 0-128.969-31.673-128.969-94.681C123.108 61.235 180.862 0 252.077 0c71.192 0 128.938 61.235 128.938 124.258z" fill="#EFC286"/><path d="M381.015 124.258c0 63.008-57.746 94.681-128.937 94.681-71.215 0-128.969-31.673-128.969-94.681" fill="#E8B374"/><path d="M213.496 109.71a2.365 2.365 0 0 1-1.725-.717c-5.632-5.624-13.107-8.72-21.047-8.72h-.016c-7.94 0-15.399 3.104-21 8.712-.953.953-2.489.977-3.442.008a2.409 2.409 0 0 1-.024-3.419c6.538-6.546 15.218-10.161 24.458-10.161h.016c9.263 0 17.944 3.592 24.513 10.145.922.937.922 2.505 0 3.434a2.361 2.361 0 0 1-1.733.718zm77.147 0c.591 0 1.213-.221 1.717-.717 5.624-5.624 13.099-8.72 21.039-8.72h.008c7.948 0 15.423 3.104 21.016 8.712a2.405 2.405 0 0 0 3.434.008 2.395 2.395 0 0 0 .024-3.419c-6.506-6.546-15.218-10.161-24.466-10.161h-.008c-9.248 0-17.944 3.592-24.513 10.145-.922.937-.922 2.505 0 3.434a2.421 2.421 0 0 0 1.749.718z" fill="#232728"/><path d="M280.481 127.086c0 19.803-12.737 35.879-28.42 35.879-15.691 0-28.436-16.077-28.436-35.879 0-19.834 12.745-7.987 28.436-7.987 15.684 0 28.42-11.847 28.42 7.987z" fill="#870E0E"/><path d="M252.046 133.979c-9.311 0-17.495 5.742-22.693 14.486 5.199 8.759 13.391 14.501 22.709 14.501s17.518-5.742 22.701-14.486c-5.183-8.759-13.383-14.501-22.717-14.501z" fill="#AA1111"/><path d="M134.144 76.469h235.835C349.964 33.532 304.727 0 252.077 0c-52.673 0-97.902 33.532-117.933 76.469z" fill="#CE1111"/><path d="M252.077 0c-44.56 0-83.732 24.04-106.89 57.431h213.756C335.793 24.04 296.621 0 252.077 0z" fill="#1267CC"/><path d="M252.077 0c-44.56 0-83.732 24.04-106.89 57.431" fill="#2186EA"/><g fill="#CE1111"><path d="M247.524 0H256.614V31.193H247.524z"/><path transform="rotate(-134.967 252.067 15.595)" d="M247.525 0.006H256.607V31.183H247.525z"/><path d="M236.473 11.043H267.642V20.133H236.473z"/><path transform="rotate(-44.863 252.03 15.578)" d="M247.481 -0.001H256.579V31.151999999999997H247.481z"/><circle cx="110.277" cy="157.397" r="16.242"/><circle cx="393.846" cy="157.397" r="16.242"/></g><g fill="#3D3C39"><circle cx="227.32" cy="267.981" r="4.758"/><circle cx="227.32" cy="304.601" r="4.758"/><circle cx="227.32" cy="341.165" r="4.758"/></g></svg>