<svg xmlns="http://www.w3.org/2000/svg" viewBox="0 0 504.123 504.123"><path d="M258.521 239.159c-.859 15.061-20.953 26.128-44.843 24.757-23.875-1.41-140.745-20.504-139.894-35.564.906-15.069 119.233-20.385 143.108-18.976 23.866 1.387 42.511 14.722 41.629 29.783z" fill="#E88F00"/><path d="M249.344 232.952c.874-15.061 20.953-26.12 44.859-24.757 23.875 1.418 140.737 20.512 139.886 35.572-.906 15.061-119.233 20.385-143.108 18.968-23.875-1.379-42.519-14.722-41.637-29.783z" fill="#E88F00"/><path d="M231.29 361.913c0 19.503-15.817 124.668-35.336 124.668-19.495 0-35.304-105.173-35.304-124.668 0-19.495 15.817-35.32 35.304-35.32 19.519 0 35.336 15.825 35.336 35.32zm118.359 0c0 19.503-15.817 124.668-35.336 124.668-19.495 0-35.304-105.173-35.304-124.668 0-19.495 15.817-35.32 35.304-35.32 19.519 0 35.336 15.825 35.336 35.32z" fill="#E57200"/><path d="M354.784 315.242c0 126.33-44.599 84.259-99.643 84.259-55.028 0-99.643 42.071-99.643-84.259 0-72.231 44.631-130.781 99.643-130.781 55.029.009 99.643 58.558 99.643 130.781z" fill="#E88F00"/><path d="M259.742 352.484c0 2.536-2.064 4.6-4.6 4.6a4.606 4.606 0 0 1-4.6-4.6V206.761a4.599 4.599 0 0 1 4.6-4.592c2.536 0 4.6 2.056 4.6 4.592v145.723zm-24.033 134.735c0 14.935-17.802 16.904-39.739 16.904s-39.739-1.961-39.739-16.904 17.802-35.509 39.739-35.509 39.739 20.567 39.739 35.509z" fill="#3D3C39"/><path d="M235.709 487.219c0 14.935-17.802 16.904-39.739 16.904s-39.739-1.961-39.739-16.904" fill="#1C1B1A"/><path d="M354.06 487.219c0 14.935-17.802 16.904-39.739 16.904s-39.739-1.961-39.739-16.904 17.802-35.509 39.739-35.509 39.739 20.567 39.739 35.509z" fill="#3D3C39"/><path d="M354.06 487.219c0 14.935-17.802 16.904-39.739 16.904s-39.739-1.961-39.739-16.904" fill="#1C1B1A"/><path d="M384.095 124.258c0 63.008-57.738 94.681-128.937 94.681-71.215 0-128.969-31.673-128.969-94.681C126.188 61.235 183.942 0 255.157 0c71.2 0 128.938 61.235 128.938 124.258z" fill="#E88F00"/><path d="M384.095 124.258c0 63.008-57.738 94.681-128.937 94.681-71.215 0-128.969-31.673-128.969-94.681" fill="#E57200"/><path d="M360.464 124.258c0 63.008-34.107 51.657-105.307 51.657-71.215 0-105.338 11.351-105.338-51.657 0-63.023 34.123-72.405 105.338-72.405 71.2.001 105.307 9.382 105.307 72.405z" fill="#EFC286"/><path d="M255.157 175.915c71.199 0 105.307 11.351 105.307-51.657H149.819c0 63.008 34.123 51.657 105.338 51.657z" fill="#E5AE73"/><circle cx="193.851" cy="129.126" r="11.532" fill="#113E49"/><path d="M205.351 129.126c0 6.388-5.167 11.54-11.54 11.54-6.372 0-11.524-5.152-11.524-11.54"/><path d="M216.568 153.175c-.614 0-1.245-.213-1.725-.717-5.632-5.624-13.107-8.72-21.047-8.72h-.016c-7.94 0-15.399 3.104-21 8.712-.953.953-2.489.977-3.434.008a2.402 2.402 0 0 1-.032-3.419c6.538-6.546 15.218-10.161 24.458-10.161h.016c9.263 0 17.952 3.592 24.505 10.145.937.937.937 2.505 0 3.434-.465.505-1.079.718-1.725.718z" fill="#FFD3C5"/><circle cx="316.471" cy="129.126" r="11.532" fill="#113E49"/><path d="M304.939 129.126c0 6.388 5.152 11.54 11.54 11.54 6.372 0 11.524-5.152 11.524-11.54"/><path d="M293.723 153.175c.599 0 1.229-.213 1.709-.717 5.632-5.624 13.107-8.72 21.047-8.72h.016c7.94 0 15.415 3.104 21.016 8.712a2.405 2.405 0 0 0 3.434.008c.953-.922.969-2.458.016-3.419-6.506-6.546-15.218-10.161-24.458-10.161h-.016c-9.248 0-17.936 3.592-24.505 10.145-.922.937-.922 2.505 0 3.434.48.505 1.095.718 1.741.718z" fill="#FFD3C5"/><path d="M151.773 101.502c19.188-3.182 42.252-9.736 66.371-19.424 22.599-9.082 42.63-19.519 58.273-29.822a546.752 546.752 0 0 0-21.26-.402c-61.534 0-95.318 7.081-103.384 49.648z" fill="#592D08"/><path d="M233.858 52.256c15.644 10.311 35.675 20.74 58.273 29.822 24.119 9.681 47.183 16.242 66.371 19.424-8.058-42.559-41.834-49.648-103.353-49.648-7.53 0-14.572.142-21.291.402z" fill="#723B0A"/><g><path d="M97.477 231.054c0 8.696-7.058 15.754-15.754 15.754h-12.8c-8.696 0-15.754-7.058-15.754-15.754v-12.8c0-8.696 7.058-15.754 15.754-15.754h12.8c8.696 0 15.754 7.058 15.754 15.754v12.8zm353.477 18.707c0 8.696-7.058 15.754-15.754 15.754h-12.8c-8.704 0-15.754-7.058-15.754-15.754v-12.8c0-8.696 7.05-15.754 15.754-15.754h12.8c8.696 0 15.754 7.058 15.754 15.754v12.8z" fill="#592D08"/></g><g><path d="M251.975 220.625c.638.646.638 1.686.016 2.324l-21.819 21.819c-.646.638-1.694.638-2.324 0a1.636 1.636 0 0 1 0-2.324l21.819-21.819a1.63 1.63 0 0 1 2.308 0zm1.985 9.846a1.65 1.65 0 0 0-.016 2.324l21.819 21.819c.646.638 1.694.638 2.316 0a1.622 1.622 0 0 0 0-2.324l-21.819-21.819a1.621 1.621 0 0 0-2.3 0z" fill="#3D3C39"/></g></svg>