<svg xmlns="http://www.w3.org/2000/svg" viewBox="0 0 504.123 504.123"><path d="M275.645 258.095c11.28 10.027 33.296 3.663 49.215-14.218 15.896-17.881 85.016-114.018 73.767-124.062-11.296-10.012-98.706 69.9-114.601 87.773-15.903 17.857-19.661 40.472-8.381 50.507z" fill="#F24603"/><path d="M420.754 122.092c0 8.696-7.05 15.754-15.754 15.754h-7.877c-8.696 0-15.754-7.058-15.754-15.754v-7.877c0-8.696 7.058-15.754 15.754-15.754H405c8.704 0 15.754 7.058 15.754 15.754v7.877z" fill="#32A01C"/><path d="M234.464 203.768c10.027 11.28 3.663 33.304-14.218 49.223-17.881 15.896-114.034 85.024-124.062 73.767-10.012-11.296 69.892-98.714 87.757-114.609 17.874-15.895 40.488-19.653 50.523-8.381z" fill="#FF6D00"/><path d="M221.601 361.913c0 19.503-15.817 124.668-35.336 124.668-19.495 0-35.304-105.173-35.304-124.668 0-19.495 15.817-35.32 35.304-35.32 19.52 0 35.336 15.825 35.336 35.32zm118.351 0c0 19.503-15.817 124.668-35.336 124.668-19.495 0-35.304-105.173-35.304-124.668 0-19.495 15.817-35.32 35.304-35.32 19.519 0 35.336 15.825 35.336 35.32z" fill="#087C66"/><path d="M345.096 315.242c0 126.33-44.615 84.259-99.643 84.259s-99.651 42.079-99.651-84.259c0-72.231 44.631-130.781 99.643-130.781 55.028.009 99.651 58.558 99.651 130.781z" fill="#FF6D00"/><path d="M249.88 364.473a4.426 4.426 0 0 1-4.427 4.427 4.426 4.426 0 0 1-4.427-4.427V234.504a4.426 4.426 0 0 1 4.427-4.427 4.426 4.426 0 0 1 4.427 4.427v129.969z" fill="#3D3C39"/><ellipse cx="245.445" cy="213.827" rx="54.65" ry="33.965" fill="#32A01C"/><path d="M245.445 366.033c-51.617 0-94.074 37.006-99.139-62.661-.339 3.458-.504 7.396-.504 11.878 0 126.33 44.615 84.259 99.643 84.259s99.643 42.071 99.643-84.259c0-4.474-.165-8.413-.504-11.878-5.073 99.667-47.506 62.661-99.139 62.661z" fill="#F24603"/><path d="M226.013 487.219c0 14.935-17.802 16.904-39.755 16.904-21.921 0-39.739-1.961-39.739-16.904s17.818-35.509 39.739-35.509c21.961.008 39.755 20.567 39.755 35.509z" fill="#3D3C39"/><path d="M226.013 487.219c0 14.935-17.802 16.904-39.755 16.904-21.921 0-39.739-1.961-39.739-16.904" fill="#1C1B1A"/><path d="M344.355 487.219c0 14.935-17.786 16.904-39.723 16.904-21.937 0-39.739-1.961-39.739-16.904s17.802-35.509 39.739-35.509c21.937 0 39.723 20.567 39.723 35.509z" fill="#3D3C39"/><path d="M344.355 487.219c0 14.935-17.786 16.904-39.723 16.904-21.937 0-39.739-1.961-39.739-16.904" fill="#1C1B1A"/><path d="M374.398 124.258c0 63.008-57.754 94.681-128.937 94.681-71.215 0-128.969-31.673-128.969-94.681C116.492 61.235 174.245 0 245.461 0c71.183 0 128.937 61.235 128.937 124.258z" fill="#E8B085"/><path d="M374.398 124.258c0 63.008-57.754 94.681-128.937 94.681-71.215 0-128.969-31.673-128.969-94.681" fill="#DD9F76"/><circle cx="184.131" cy="136.428" r="11.532" fill="#113E49"/><path d="M195.663 136.428c0 6.388-5.183 11.54-11.54 11.54-6.372 0-11.524-5.152-11.524-11.54"/><path d="M206.88 160.484a2.377 2.377 0 0 1-1.725-.717c-5.632-5.624-13.107-8.72-21.047-8.72h-.016c-7.94 0-15.399 3.104-21 8.712a2.425 2.425 0 0 1-3.45.008c-.953-.922-.969-2.458-.016-3.419 6.538-6.546 15.218-10.161 24.458-10.161h.016c9.263 0 17.936 3.592 24.489 10.145.937.937.937 2.505 0 3.434-.449.498-1.064.718-1.709.718z" fill="#F4C3A2"/><path d="M295.243 136.428c0 6.388 5.136 11.54 11.54 11.54 6.372 0 11.524-5.152 11.524-11.54 0-6.365-5.151-11.532-11.524-11.532a11.53 11.53 0 0 0-11.54 11.532z" fill="#113E49"/><path d="M295.243 136.428c0 6.388 5.136 11.54 11.54 11.54 6.372 0 11.524-5.152 11.524-11.54"/><path d="M284.034 160.484c.583 0 1.229-.221 1.709-.717 5.632-5.624 13.107-8.72 21.047-8.72 7.956 0 15.431 3.104 21.016 8.712a2.405 2.405 0 0 0 3.434.008 2.388 2.388 0 0 0 .032-3.419c-6.506-6.546-15.218-10.161-24.474-10.161-9.247 0-17.952 3.592-24.521 10.145-.922.937-.922 2.505 0 3.434.489.498 1.111.718 1.757.718z" fill="#F4C3A2"/><path d="M120.674 95.193H370.2C355.927 43.67 305.554 0 245.461 0c-60.125 0-110.49 43.67-124.787 95.193z" fill="#54C911"/><path d="M120.674 95.193H370.2c-14.273-51.523-64.646-72.862-124.739-72.862-60.125 0-110.49 21.339-124.787 72.862z" fill="#32A01C"/><path d="M131.521 160.075c-3.277 12.918-16.384 20.732-29.31 17.471-12.91-3.269-20.74-16.384-17.479-29.31 3.277-12.91 25.813-57.951 38.739-54.689 12.91 3.268 11.311 53.618 8.05 66.528z" fill="#54C911"/><path d="M123.479 93.546c12.91 3.269 11.311 53.618 8.042 66.528-3.277 12.918-16.384 20.732-29.31 17.471" fill="#32A01C"/><path d="M359.369 160.075c3.261 12.918 16.384 20.732 29.31 17.471 12.91-3.269 20.74-16.384 17.463-29.31-3.261-12.91-25.813-57.951-38.723-54.689-12.926 3.268-11.311 53.618-8.05 66.528z" fill="#54C911"/><path d="M367.419 93.546c-12.926 3.269-11.311 53.618-8.042 66.528 3.269 12.91 16.384 20.732 29.31 17.471" fill="#32A01C"/><path d="M375.414 95.177c0 5.435-4.419 9.846-9.846 9.846H125.322c-5.443 0-9.846-4.411-9.846-9.846 0-5.435 4.403-9.846 9.846-9.846h240.246c5.435 0 9.846 4.411 9.846 9.846zm-252.66 234.354c0 8.696-7.058 15.754-15.754 15.754h-7.877c-8.704 0-15.754-7.058-15.754-15.754v-7.877c0-8.704 7.05-15.754 15.754-15.754H107c8.696 0 15.754 7.05 15.754 15.754v7.877z" fill="#32A01C"/><g fill="#3D3C39"><path d="M220.83 305.885h-43.323v-43.323h43.323v43.323zm-35.447-7.877h27.569v-27.569h-27.569v27.569z"/><path d="M199.168 286.791L184.123 271.746 189.692 266.177 199.168 275.653 208.644 266.177 214.213 271.746z"/><path d="M313.383 305.885H270.06v-43.323h43.323v43.323zm-35.446-7.877h27.569v-27.569h-27.569v27.569z"/><path d="M291.722 286.791L276.677 271.746 282.246 266.177 291.722 275.653 301.198 266.177 306.767 271.746z"/></g></svg>