<svg xmlns="http://www.w3.org/2000/svg" viewBox="0 0 504.123 504.123"><ellipse cx="141.762" cy="126.362" rx="37.746" ry="33.808" fill="#0CBC64"/><path d="M179.508 126.362c0 18.676-16.896 33.808-37.738 33.808-20.85 0-37.754-15.132-37.754-33.808" fill="#089B78"/><ellipse cx="378.093" cy="126.362" rx="37.746" ry="33.808" fill="#0CBC64"/><path d="M415.816 126.362c0 18.676-16.896 33.808-37.738 33.808-20.85 0-37.754-15.132-37.754-33.808" fill="#089B78"/><path d="M236.073 361.913c0 19.503-15.817 124.668-35.336 124.668-19.495 0-35.304-105.173-35.304-124.668 0-19.495 15.817-35.32 35.304-35.32 19.519 0 35.336 15.825 35.336 35.32zm118.35 0c0 19.503-15.817 124.668-35.336 124.668-19.495 0-35.304-105.173-35.304-124.668 0-19.495 15.817-35.32 35.304-35.32 19.519 0 35.336 15.825 35.336 35.32z" fill="#232728"/><path d="M359.559 315.242c0 126.33-44.599 84.259-99.643 84.259-55.028 0-99.643 42.071-99.643-84.259 0-72.231 44.631-130.788 99.643-130.788 55.028.008 99.643 58.565 99.643 130.788z" fill="#0CBC64"/><path d="M294.267 214.315c11.28-10.027 33.312-3.663 49.231 14.218 15.896 17.881 85.016 114.018 73.767 124.062-11.288 10.012-98.721-69.892-114.609-87.773-15.895-17.857-19.645-40.479-8.389-50.507z" fill="#0CBC64"/><path d="M300.655 347.498a3.94 3.94 0 0 1 0-7.876c12.304 0 22.315-10.012 22.315-22.315v-96.264a3.94 3.94 0 0 1 7.876 0v96.264c.002 16.643-13.547 30.191-30.191 30.191z" fill="#778785"/><path d="M259.916 348.31c-49.554 0-90.64 34.036-98.336-51.389-.843 5.104-1.308 11.138-1.308 18.33 0 126.33 44.615 84.259 99.643 84.259 55.044 0 99.643 42.071 99.643-84.259 0-7.192-.465-13.225-1.308-18.33-7.686 85.425-48.765 51.389-98.334 51.389z" fill="#089B78"/><path d="M240.484 487.219c0 14.935-17.802 16.904-39.739 16.904s-39.739-1.961-39.739-16.904 17.802-35.509 39.739-35.509 39.739 20.567 39.739 35.509z" fill="#EFA30C"/><path d="M240.484 487.219c0 14.935-17.802 16.904-39.739 16.904s-39.739-1.961-39.739-16.904" fill="#D68A05"/><path d="M358.842 487.219c0 14.935-17.802 16.904-39.739 16.904-21.937 0-39.739-1.961-39.739-16.904s17.802-35.509 39.739-35.509c21.937 0 39.739 20.567 39.739 35.509z" fill="#EFA30C"/><path d="M358.842 487.219c0 14.935-17.802 16.904-39.739 16.904-21.937 0-39.739-1.961-39.739-16.904" fill="#D68A05"/><path d="M270.384 231.219c-.898-15.061-20.976-26.136-44.859-24.757-23.883 1.402-140.737 20.512-139.894 35.564.906 15.069 119.233 20.385 143.108 18.983 23.859-1.393 42.512-14.729 41.645-29.79z" fill="#0CBC64"/><circle cx="259.916" cy="211.361" r="26.585" fill="#A56B44"/><path d="M388.869 124.258c0 63.008-57.738 94.681-128.937 94.681-71.215 0-128.969-31.673-128.969-94.681C130.963 61.235 188.716 0 259.932 0c71.199 0 128.937 61.235 128.937 124.258z" fill="#D8A17C"/><path d="M388.869 124.258c0 63.008-57.738 94.681-128.937 94.681-71.215 0-128.969-31.673-128.969-94.681 0-63.023 57.754-111.789 128.969-111.789 71.199 0 128.937 48.766 128.937 111.789z" fill="#C48960"/><path d="M388.869 124.258c0 63.008-57.738 94.681-128.937 94.681-71.215 0-128.969-31.673-128.969-94.681" fill="#BC8158"/><circle cx="198.602" cy="95.074" r="11.532" fill="#113E49"/><path d="M210.134 95.074c0 6.388-5.167 11.54-11.54 11.54-6.372 0-11.524-5.152-11.524-11.54"/><path d="M221.351 119.131a2.377 2.377 0 0 1-1.725-.717c-5.632-5.624-13.107-8.72-21.047-8.72h-.016c-7.94 0-15.399 3.104-21 8.712-.953.953-2.489.977-3.434.008a2.402 2.402 0 0 1-.032-3.419c6.538-6.546 15.218-10.161 24.458-10.161h.016c9.263 0 17.952 3.592 24.505 10.145.937.937.937 2.505 0 3.434-.465.497-1.08.718-1.725.718z" fill="#E5A376"/><circle cx="321.222" cy="95.074" r="11.532" fill="#113E49"/><path d="M309.714 95.074a11.52 11.52 0 0 0 11.54 11.54c6.372 0 11.524-5.152 11.524-11.54"/><path d="M298.505 119.131c.599 0 1.229-.221 1.709-.717 5.632-5.624 13.107-8.72 21.047-8.72h.016c7.94 0 15.415 3.104 21.016 8.712a2.405 2.405 0 0 0 3.434.008c.953-.922.969-2.458.016-3.419-6.506-6.546-15.218-10.161-24.458-10.161h-.016c-9.247 0-17.936 3.592-24.505 10.145-.922.937-.922 2.505 0 3.434.473.497 1.087.718 1.741.718z" fill="#E5A376"/><ellipse cx="259.916" cy="124.558" rx="6.231" ry="15.423" fill="#AA1111"/><path d="M253.685 124.558c0-8.523 2.788-15.431 6.231-15.431 3.442 0 6.231 6.908 6.231 15.431" fill="#870E0E"/><path d="M329.335 221.208h-138.83c-35.564 0-64.496-28.932-64.496-64.496a3.94 3.94 0 0 1 7.876 0c0 31.216 25.403 56.619 56.619 56.619h138.831c31.216 0 56.619-25.403 56.619-56.619a3.94 3.94 0 0 1 7.876 0c-.006 35.564-28.938 64.496-64.495 64.496z" fill="#8DA3A1"/><path d="M228.905 299.488a4.426 4.426 0 0 1-4.427 4.427 4.426 4.426 0 0 1-4.427-4.427V269.95a4.426 4.426 0 0 1 4.427-4.427 4.426 4.426 0 0 1 4.427 4.427v29.538zm17.723 0a4.426 4.426 0 0 1-4.427 4.427 4.426 4.426 0 0 1-4.427-4.427V269.95a4.426 4.426 0 0 1 4.427-4.427 4.426 4.426 0 0 1 4.427 4.427v29.538zm17.723 0a4.426 4.426 0 0 1-4.427 4.427 4.426 4.426 0 0 1-4.427-4.427V269.95a4.426 4.426 0 0 1 4.427-4.427 4.426 4.426 0 0 1 4.427 4.427v29.538zm17.723 0a4.426 4.426 0 0 1-4.427 4.427 4.426 4.426 0 0 1-4.427-4.427V269.95a4.426 4.426 0 0 1 4.427-4.427 4.426 4.426 0 0 1 4.427 4.427v29.538zm17.723 0a4.426 4.426 0 0 1-4.427 4.427 4.426 4.426 0 0 1-4.427-4.427V269.95a4.426 4.426 0 0 1 4.427-4.427 4.426 4.426 0 0 1 4.427 4.427v29.538z" fill="#EFA30C"/><path d="M317.268 356.076a3.941 3.941 0 0 1 0 5.569 3.941 3.941 0 0 1-5.569 0l-24.726-24.718a3.956 3.956 0 0 1 0-5.569 3.95 3.95 0 0 1 5.577 0l24.718 24.718z" fill="#089B78"/><path d="M310.383 276.559a.655.655 0 0 1-.536.748l-94.633 15.139a.669.669 0 0 1-.764-.543.66.66 0 0 1 .544-.756l94.633-15.139a.658.658 0 0 1 .756.551z" fill="#EFA30C"/></svg>