<svg xmlns="http://www.w3.org/2000/svg" viewBox="0 0 504.123 504.123"><path d="M263.388 361.913c0 19.503-15.817 124.668-35.336 124.668-19.495 0-35.304-105.173-35.304-124.668 0-19.495 15.817-35.32 35.304-35.32 19.519 0 35.336 15.825 35.336 35.32zm118.351 0c0 19.503-15.817 124.668-35.336 124.668-19.495 0-35.304-105.173-35.304-124.668 0-19.495 15.817-35.32 35.304-35.32 19.519 0 35.336 15.825 35.336 35.32z" fill="#4297A0"/><path d="M386.875 315.242c0 126.33-44.599 84.259-99.643 84.259-55.028 0-99.643 42.071-99.643-84.259 0-72.231 44.631-130.781 99.643-130.781 55.028.009 99.643 58.558 99.643 130.781z" fill="#232728"/><path d="M321.583 214.315c11.28-10.027 33.312-3.663 49.231 14.218 15.896 17.881 85.016 114.018 73.767 124.062-11.296 10.012-98.721-69.892-114.617-87.773-15.888-17.857-19.645-40.479-8.381-50.507z" fill="#232728"/><path d="M267.799 487.219c0 14.935-17.802 16.904-39.739 16.904s-39.739-1.961-39.739-16.904 17.802-35.509 39.739-35.509 39.739 20.567 39.739 35.509z" fill="#D1300B"/><path d="M267.799 487.219c0 14.935-17.802 16.904-39.739 16.904s-39.739-1.961-39.739-16.904" fill="#AF220B"/><path d="M386.15 487.219c0 14.935-17.802 16.904-39.739 16.904s-39.739-1.961-39.739-16.904 17.802-35.509 39.739-35.509 39.739 20.567 39.739 35.509z" fill="#D1300B"/><path d="M386.15 487.219c0 14.935-17.802 16.904-39.739 16.904s-39.739-1.961-39.739-16.904" fill="#AF220B"/><path d="M297.7 231.219c-.89-15.061-20.968-26.136-44.859-24.757-23.883 1.402-140.737 20.512-139.902 35.564.906 15.069 119.241 20.385 143.116 18.983 23.859-1.393 42.511-14.729 41.645-29.79z" fill="#232728"/><circle cx="287.231" cy="211.361" r="26.585" fill="#A56B44"/><path d="M416.185 124.258c0 63.008-57.738 94.681-128.937 94.681-71.215 0-128.969-31.673-128.969-94.681C158.278 61.235 216.032 0 287.247 0c71.2 0 128.938 61.235 128.938 124.258z" fill="#D8A17C"/><path d="M416.185 124.258c0 63.008-57.738 94.681-128.937 94.681-71.215 0-128.969-31.673-128.969-94.681 0-63.023 57.754-111.789 128.969-111.789 71.199 0 128.937 48.766 128.937 111.789z" fill="#C48960"/><path d="M416.185 124.258c0 63.008-57.738 94.681-128.937 94.681-71.215 0-128.969-31.673-128.969-94.681 0-63.023 57.754-111.789 128.969-111.789 71.199 0 128.937 48.766 128.937 111.789z" fill="#C48960"/><path d="M416.185 124.258c0 63.008-57.738 94.681-128.937 94.681-71.215 0-128.969-31.673-128.969-94.681" fill="#BC8158"/><circle cx="205.997" cy="82.377" r="11.532" fill="#113E49"/><path d="M217.529 82.377c0 6.388-5.167 11.54-11.532 11.54-6.38 0-11.54-5.152-11.54-11.54"/><path d="M228.745 106.433a2.408 2.408 0 0 1-1.733-.717c-5.632-5.624-13.099-8.72-21.039-8.72h-.016c-7.948 0-15.399 3.104-21 8.712-.945.953-2.489.977-3.434.008a2.4 2.4 0 0 1-.031-3.419c6.53-6.546 15.218-10.161 24.458-10.161h.016c9.263 0 17.951 3.592 24.505 10.145.937.937.937 2.505 0 3.434-.465.49-1.088.718-1.726.718z" fill="#E5A376"/><circle cx="328.625" cy="82.377" r="11.532" fill="#113E49"/><path d="M317.116 82.377a11.52 11.52 0 0 0 11.54 11.54c6.372 0 11.524-5.152 11.524-11.54"/><path d="M305.892 106.433a2.34 2.34 0 0 0 1.709-.717c5.64-5.624 13.115-8.72 21.055-8.72h.016c7.94 0 15.415 3.104 21.016 8.712a2.405 2.405 0 0 0 3.434.008c.953-.922.969-2.458.016-3.419-6.514-6.546-15.218-10.161-24.458-10.161h-.016c-9.247 0-17.936 3.592-24.505 10.145-.922.937-.922 2.505 0 3.434.48.49 1.095.718 1.733.718z" fill="#E5A376"/><ellipse cx="263.601" cy="118.319" rx="13.296" ry="6.396" fill="#AA1111"/><path d="M318.81 339.322c1.497-2.158 2.796-4.466 3.946-6.861.15-.284.291-.575.433-.866a50.492 50.492 0 0 0 2.678-7.373c.095-.339.173-.67.26-1 .662-2.599 1.15-5.262 1.394-8.011.008-.079.032-.15.039-.221 0-.047-.016-.079-.024-.126.118-1.339.205-2.694.205-4.064 0-27.695-22.528-50.215-50.215-50.215s-50.215 22.52-50.215 50.215c0 1.371.095 2.725.197 4.064 0 .047-.016.079-.016.126.008.079.032.15.039.221.236 2.749.733 5.411 1.394 8.011.095.339.165.662.26.992a48.672 48.672 0 0 0 2.694 7.389c.126.284.26.551.402.835 1.15 2.41 2.458 4.718 3.97 6.892.079.118.165.213.244.331 1.583 2.229 3.324 4.356 5.246 6.302 0 0 .047.055.071.087 1.859 1.883 3.891 3.584 6.034 5.159.26.189.512.394.78.583a49.406 49.406 0 0 0 6.554 3.907c.37.181.74.354 1.095.528a50.961 50.961 0 0 0 7.215 2.749c.323.102.662.165.992.252 2.623.709 5.301 1.26 8.066 1.528l.032.008-.039.008c.276.032.551.024.827.039v.032c1.371.118 2.757.181 4.151.181 1.394 0 2.788-.071 4.143-.181v-.032c.284-.016.575-.016.851-.039-.016 0-.032.008-.032.008s.016-.008.032-.008c2.757-.268 5.419-.819 8.034-1.52.347-.095.701-.165 1.048-.268a50.196 50.196 0 0 0 8.302-3.284 51.183 51.183 0 0 0 6.498-3.875c.284-.205.559-.425.835-.63 2.127-1.56 4.135-3.253 5.979-5.112.047-.047.087-.102.134-.15a50.059 50.059 0 0 0 5.167-6.223c.103-.144.213-.254.3-.388zm-37.14-70.223c1.749.165 3.411.614 5.089.992 1.15.26 2.324.488 3.45.835 1.308.417 2.552.985 3.812 1.52 1.048.457 2.127.859 3.119 1.386 1.213.646 2.339 1.434 3.474 2.19.922.622 1.89 1.189 2.773 1.875 1.079.851 2.048 1.835 3.048 2.788.788.764 1.631 1.473 2.371 2.292.922 1.048 1.709 2.206 2.536 3.34.63.874 1.339 1.701 1.906 2.623.764 1.252 1.355 2.607 1.985 3.938.449.929.985 1.804 1.355 2.781.599 1.536.985 3.167 1.402 4.781.213.851.536 1.662.709 2.536.48 2.536.748 5.144.748 7.814 0 10.973-4.238 20.96-11.162 28.436l-26.608-26.608v-43.52h-.007zm-8.302.048v43.496l-26.6 26.608c-6.916-7.475-11.162-17.471-11.162-28.436 0-2.67.268-5.277.748-7.814.165-.874.488-1.686.709-2.536.417-1.615.803-3.245 1.402-4.781.37-.969.906-1.843 1.355-2.781.63-1.331 1.213-2.686 1.985-3.938.567-.922 1.276-1.749 1.906-2.623.827-1.134 1.615-2.292 2.536-3.34.74-.819 1.583-1.528 2.371-2.292 1-.953 1.969-1.938 3.048-2.788.874-.685 1.843-1.252 2.773-1.875 1.142-.764 2.261-1.544 3.474-2.19 1-.52 2.079-.929 3.119-1.386 1.252-.536 2.505-1.111 3.812-1.52 1.126-.354 2.284-.575 3.442-.835 1.686-.378 3.348-.819 5.089-.992v.024h-.007zm-15.352 78.706a41.064 41.064 0 0 1-5.033-3.096l20.385-20.385V352.508c-5.498-.528-10.673-2.174-15.352-4.655zm23.654-15.108v-8.365l20.393 20.385a43.373 43.373 0 0 1-5.041 3.104c-4.671 2.465-9.854 4.112-15.352 4.655v-19.779z" fill="#EBF0F2"/><path d="M187.628 216.285c-37.124 7.192-75.169 17.124-74.689 25.742.52 8.428 37.77 13.808 74.689 16.66v-42.402zm192.228 95.161c28.16 24.127 58.407 46.765 64.733 41.149 6.443-5.75-13.509-39.786-34.706-71.168l-30.027 30.019z" fill="#BC8158"/><path d="M132.151 263.546c0 8.696-7.058 15.754-15.754 15.754H74.058c-8.696 0-15.754-7.058-15.754-15.754v-95.508c0-8.696 7.058-15.754 15.754-15.754h42.338c8.696 0 15.754 7.058 15.754 15.754v95.508z" fill="#AF220B"/><path d="M120.705 240.861c0 6.01-4.876 10.87-10.862 10.87H80.628c-6.01 0-10.878-4.86-10.878-10.87v-65.89c0-6.002 4.868-10.87 10.878-10.87h29.216c5.986 0 10.862 4.868 10.862 10.87-.001-.001-.001 65.89-.001 65.89z" fill="#4297A0"/></svg>