<svg xmlns="http://www.w3.org/2000/svg" viewBox="0 0 504.123 504.123"><path d="M230.273 280.631c-10.027-11.28-3.671-33.312 14.218-49.231 17.881-15.896 114.018-85.016 124.062-73.767 10.012 11.296-69.892 98.721-87.773 114.617-17.857 15.888-40.471 19.645-50.507 8.381zm-21.968 0c10.027-11.28 3.663-33.312-14.218-49.231-17.888-15.896-114.018-85.016-124.062-73.767-10.019 11.296 69.892 98.721 87.773 114.617 17.857 15.888 40.472 19.645 50.507 8.381z" fill="#D3A16A"/><path d="M313.793 361.913c0 19.503-15.809 124.668-35.328 124.668-19.495 0-35.304-105.173-35.304-124.668 0-19.495 15.817-35.32 35.304-35.32 19.519 0 35.328 15.825 35.328 35.32zm-118.351 0c0 19.503-15.825 124.668-35.336 124.668-19.495 0-35.304-105.173-35.304-124.668 0-19.495 15.817-35.32 35.304-35.32 19.519 0 35.336 15.825 35.336 35.32z" fill="#0AA0A0"/><path d="M135.38 432.569c6.372 28.333 15.1 54.012 24.734 54.012 9.649 0 18.385-25.687 24.765-54.012H135.38zm118.351 0c6.372 28.333 15.1 54.012 24.734 54.012 9.649 0 18.377-25.687 24.765-54.012h-49.499z" fill="#BC8158"/><path d="M318.936 315.242c0 126.33-44.599 84.259-99.643 84.259-55.036 0-99.643 42.071-99.643-84.259 0-72.231 44.623-130.781 99.643-130.781 55.028.009 99.643 58.558 99.643 130.781z" fill="#CC7309"/><path d="M219.293 184.47c-51.696 0-94.216 51.704-99.147 117.894 4.986 100.076 47.466 63.008 99.147 63.008 51.688 0 94.161 37.069 99.147-63.008-4.939-66.19-47.435-117.894-99.147-117.894z" fill="#EA8C06"/><ellipse cx="219.293" cy="228.762" rx="42.669" ry="37.738" fill="#D3A16A"/><path d="M199.861 487.219c0 14.935-17.802 16.904-39.739 16.904s-39.739-1.961-39.739-16.904 17.802-35.509 39.739-35.509 39.739 20.567 39.739 35.509z" fill="#E8B374"/><path d="M199.861 487.219c0 14.935-17.802 16.904-39.739 16.904s-39.739-1.961-39.739-16.904" fill="#13B784"/><path d="M318.211 487.219c0 14.935-17.81 16.904-39.747 16.904-21.929 0-39.731-1.961-39.731-16.904s17.802-35.509 39.731-35.509c21.946.008 39.747 20.567 39.747 35.509z" fill="#E8B374"/><path d="M318.211 487.219c0 14.935-17.81 16.904-39.747 16.904-21.929 0-39.731-1.961-39.731-16.904" fill="#13B784"/><path d="M348.246 124.258c0 63.008-57.738 94.681-128.937 94.681-71.223 0-128.977-31.673-128.977-94.681C90.332 61.235 148.086 0 219.309 0c71.199 0 128.937 61.235 128.937 124.258z" fill="#EFC286"/><path d="M348.246 124.258c0 63.008-57.738 94.681-128.937 94.681-71.223 0-128.977-31.673-128.977-94.681" fill="#E8B374"/><path d="M158.404 118.894a2.377 2.377 0 0 1-1.725-.717c-5.632-5.624-13.107-8.72-21.047-8.72h-.016c-7.94 0-15.399 3.104-21 8.712-.953.953-2.489.977-3.434.008a2.402 2.402 0 0 1-.032-3.419c6.538-6.546 15.218-10.161 24.458-10.161h.016c9.263 0 17.951 3.592 24.505 10.145.937.937.937 2.505 0 3.434-.456.49-1.079.718-1.725.718zm77.155 0c.599 0 1.229-.221 1.709-.717 5.632-5.624 13.107-8.72 21.047-8.72h.016c7.94 0 15.415 3.104 21.016 8.712a2.405 2.405 0 0 0 3.434.008c.953-.922.969-2.458.016-3.419-6.506-6.546-15.218-10.161-24.458-10.161h-.016c-9.247 0-17.936 3.592-24.505 10.145-.922.937-.922 2.505 0 3.434.481.49 1.095.718 1.741.718z" fill="#232728"/><path d="M226.721 132.986c0 19.803-12.737 35.879-28.428 35.879s-28.428-16.077-28.428-35.879c0-19.834 12.737-7.987 28.428-7.987s28.428-11.847 28.428 7.987z" fill="#870E0E"/><path d="M198.285 139.878c-9.318 0-17.51 5.742-22.701 14.486 5.191 8.751 13.391 14.501 22.709 14.501s17.518-5.742 22.701-14.486c-5.19-8.758-13.39-14.501-22.709-14.501z" fill="#AA1111"/><path d="M197.891 344.088c5.695 5.215 13.281 8.405 21.606 8.405 3.017 0 5.923-.433 8.696-1.205-2.765-.402-5.774-1.15-9.051-2.371-8.884-3.246-15.847-4.554-21.251-4.829zm53.508-26.002c-4.356 4.876-14.202 11.784-32.256 5.167-16.258-5.971-26.175-5.396-31.618-3.883-.016.37-.032.748-.032 1.126 0 3.269.488 6.42 1.402 9.389 5.876-3.135 15.218-5.821 26.813-1.323 19.897 7.712 27.711 6.561 34.17 1.977a32.276 32.276 0 0 0 1.615-10.043c.009-.819-.031-1.63-.094-2.41z" fill="#0AA0A0"/><path d="M219.143 336.085c-14.446-5.293-23.859-5.427-29.609-4.348a31.748 31.748 0 0 0 4.915 8.657c5.585-1.741 12.816-2.269 21.26 1 9.704 3.773 16.542 5.419 21.74 5.593a32.25 32.25 0 0 0 11.311-13.548c-5.214 4.276-14.556 8.167-29.617 2.646zm-3.426-20.354c21.331 8.271 28.759 6.349 35.549.929-1.89-15.872-15.384-28.168-31.76-28.168-16.754 0-30.492 12.879-31.878 29.279 5.742-3.403 15.596-6.885 28.089-2.04z" fill="#0AA0A0"/><path d="M341.433 504.123c-51.578 0-93.538-41.96-93.538-93.538s41.96-93.538 93.538-93.538 93.531 41.96 93.531 93.538-41.953 93.538-93.531 93.538zm0-141.926c-26.679 0-48.396 21.709-48.396 48.388s21.717 48.38 48.396 48.38 48.38-21.701 48.38-48.38c0-26.68-21.709-48.388-48.38-48.388z" fill="#DD300E"/><path d="M341.433 343.717c-36.927 0-66.859 29.94-66.859 66.867s29.94 66.867 66.859 66.867 66.859-29.94 66.859-66.867-29.94-66.867-66.859-66.867zm0 115.248c-26.679 0-48.396-21.701-48.396-48.38 0-26.679 21.717-48.388 48.396-48.388s48.38 21.709 48.38 48.388-21.709 48.38-48.38 48.38z" fill="#BC1D08"/><path d="M293.037 410.585h-45.143c0-51.578 41.96-93.538 93.538-93.538v45.151c-26.678-.001-48.395 21.707-48.395 48.387z" fill="#17AACC"/><path d="M247.894 410.585c0-51.578 41.96-93.538 93.538-93.538" fill="#2DCEE8"/><path d="M341.433 504.123v-45.158c26.679 0 48.38-21.701 48.38-48.38h45.15c0 51.578-41.952 93.538-93.53 93.538z" fill="#17AACC"/><g fill="#0896BC"><path d="M434.963 410.585c0 51.578-41.952 93.538-93.531 93.538m.001-141.926V343.71c-36.927 0-66.859 29.94-66.859 66.867h18.471c-.008-26.672 21.709-48.38 48.388-48.38z"/><path d="M389.805 410.585c0 26.679-21.701 48.38-48.38 48.38v18.495c36.927 0 66.859-29.94 66.859-66.867h-18.479v-.008z"/></g><circle cx="398.729" cy="367.38" r="10.594" fill="#FCD21D"/><path d="M409.347 367.348c0 5.853-4.75 10.602-10.594 10.602-5.853 0-10.594-4.75-10.594-10.602" fill="#F9A51E"/><path d="M219.309 0c-32.744 0-62.543 13.036-85.291 33.146h160.681v64s18.416-43.055 41.889-21.898C316.282 32.902 271.462 0 219.309 0z" fill="#D3A16A"/></svg>