<svg xmlns="http://www.w3.org/2000/svg" viewBox="0 0 504.123 504.123"><path d="M263.05 280.631c-10.027-11.28-3.663-33.312 14.218-49.231 17.881-15.896 114.018-85.016 124.062-73.767 10.012 11.296-69.892 98.721-87.773 114.617-17.865 15.888-40.479 19.645-50.507 8.381zm-21.976 0c10.027-11.28 3.663-33.312-14.218-49.231-17.881-15.896-114.018-85.016-124.062-73.767-10.012 11.296 69.892 98.721 87.773 114.617 17.865 15.888 40.479 19.645 50.507 8.381z" fill="#232728"/><path d="M168.582 188.731c-29.783-19.779-60.353-37.179-65.788-31.098-5.293 5.963 14.517 33.178 37.006 59.872l28.782-28.774zm198.302 25.695c21.402-25.679 39.526-51.058 34.438-56.793-5.23-5.845-33.713 10.035-62.377 28.853l27.939 27.94z" fill="#D39959"/><path d="M228.219 361.913c0 19.503-15.817 124.668-35.336 124.668-19.495 0-35.304-105.173-35.304-124.668 0-19.495 15.817-35.32 35.304-35.32 19.519 0 35.336 15.825 35.336 35.32zm118.35 0c0 19.503-15.817 124.668-35.336 124.668-19.495 0-35.304-105.173-35.304-124.668 0-19.495 15.817-35.32 35.304-35.32 19.52 0 35.336 15.825 35.336 35.32z" fill="#960808"/><path d="M351.705 315.242c0 126.33-44.599 84.259-99.643 84.259-55.028 0-99.643 42.071-99.643-84.259 0-72.231 44.631-130.788 99.643-130.788 55.028.008 99.643 58.565 99.643 130.788z" fill="#232728"/><path d="M232.63 487.219c0 14.935-17.802 16.904-39.739 16.904s-39.739-1.961-39.739-16.904 17.802-35.509 39.739-35.509 39.739 20.567 39.739 35.509z" fill="#FF7300"/><path d="M232.63 487.219c0 14.935-17.802 16.904-39.739 16.904s-39.739-1.961-39.739-16.904" fill="#FF4800"/><path d="M350.988 487.219c0 14.935-17.802 16.904-39.739 16.904s-39.739-1.961-39.739-16.904 17.802-35.509 39.739-35.509 39.739 20.567 39.739 35.509z" fill="#FF7300"/><path d="M350.988 487.219c0 14.935-17.802 16.904-39.739 16.904s-39.739-1.961-39.739-16.904" fill="#FF4800"/><path d="M381.015 124.258c0 63.008-57.738 94.681-128.937 94.681-71.215 0-128.969-31.673-128.969-94.681C123.109 61.235 180.863 0 252.078 0c71.199 0 128.937 61.235 128.937 124.258z" fill="#EFC286"/><path d="M381.015 124.258c0 63.008-57.738 94.681-128.937 94.681-71.215 0-128.969-31.673-128.969-94.681" fill="#E8B374"/><path d="M190.512 148.433a2.415 2.415 0 0 1-1.725-.717c-5.624-5.624-13.107-8.72-21.039-8.72h-.016c-7.948 0-15.399 3.104-21 8.712-.953.953-2.489.977-3.426.008-.969-.922-.985-2.458-.047-3.419 6.546-6.546 15.218-10.161 24.466-10.161h.016c9.255 0 17.952 3.592 24.505 10.145.945.937.945 2.505 0 3.434-.466.489-1.088.718-1.734.718zm77.154 0a2.38 2.38 0 0 0 1.709-.717c5.632-5.624 13.107-8.72 21.039-8.72h.024c7.94 0 15.415 3.104 21.016 8.712a2.405 2.405 0 0 0 3.434.008c.953-.922.969-2.458.016-3.419-6.498-6.546-15.218-10.161-24.458-10.161h-.024c-9.24 0-17.928 3.592-24.497 10.145-.922.937-.922 2.505 0 3.434.473.489 1.095.718 1.741.718z" fill="#232728"/><path d="M207.345 186.179c0-15.415 9.909-27.932 22.126-27.932s22.15 12.516 22.15 27.932c0 15.439-9.933 6.215-22.15 6.215-12.217 0-22.126 9.224-22.126-6.215z" fill="#870E0E"/><path d="M229.487 180.815c7.239 0 13.627-4.466 17.66-11.28-4.033-6.806-10.421-11.296-17.676-11.296-7.247 0-13.619 4.466-17.66 11.288 4.033 6.822 10.413 11.288 17.676 11.288z" fill="#AA1111"/><path d="M142.927 60.77c22.741 17.148 62.078 28.499 106.882 28.499 36.226 0 68.836-7.444 92.065-19.338 8.799 4.521 19.007 8.381 30.224 11.453C353.328 36.116 306.728 0 252.078 0c-46.041 0-86.331 25.655-109.151 60.77z" fill="#232728"/><g fill="#FF7300"><path d="M250.644 250.856c-32.957 0-59.652 26.711-59.652 59.644h20.819c0-21.449 17.384-38.833 38.841-38.833 21.441 0 38.817 17.384 38.817 38.833h20.811c-.007-32.941-26.726-59.644-59.636-59.644z"/><path d="M268.958 310.5c0-10.122-8.2-18.33-18.306-18.33-10.138 0-18.345 8.208-18.345 18.33h36.651zm-70.294 30.665a63.514 63.514 0 0 0 3.482 5.435h96.973a59.274 59.274 0 0 0 3.466-5.435H198.664zm87.261 18.795a58.579 58.579 0 0 0 6.396-5.435h-83.385a59.256 59.256 0 0 0 6.388 5.435h70.601zm-55.895 7.916a59.54 59.54 0 0 0 20.614 3.655 59.41 59.41 0 0 0 20.567-3.655H230.03zm-36.872-40.07a54.158 54.158 0 0 0 1.788 5.435H306.31a54.876 54.876 0 0 0 1.796-5.435H193.158z"/></g></svg>