<svg xmlns="http://www.w3.org/2000/svg" viewBox="0 0 504.123 504.123"><path d="M256.646 239.159c-.874 15.061-20.937 26.128-44.843 24.757-23.875-1.41-140.753-20.504-139.894-35.564.906-15.069 119.233-20.385 143.108-18.976 23.859 1.387 42.511 14.722 41.629 29.783z" fill="#F2860F"/><path d="M247.469 232.952c.874-15.061 20.945-26.12 44.859-24.757 23.867 1.418 140.737 20.512 139.886 35.572-.89 15.061-119.217 20.385-143.108 18.968-23.858-1.379-42.519-14.722-41.637-29.783z" fill="#F2860F"/><path d="M229.415 361.913c0 19.503-15.817 124.668-35.336 124.668-19.495 0-35.304-105.173-35.304-124.668 0-19.495 15.817-35.32 35.304-35.32 19.52 0 35.336 15.825 35.336 35.32zm118.351 0c0 19.503-15.817 124.668-35.336 124.668-19.495 0-35.304-105.173-35.304-124.668 0-19.495 15.817-35.32 35.304-35.32 19.527 0 35.336 15.825 35.336 35.32z" fill="#104956"/><path d="M352.91 315.242c0 126.33-44.599 84.259-99.643 84.259-55.028 0-99.643 42.071-99.643-84.259 0-72.231 44.631-130.781 99.643-130.781 55.028.009 99.643 58.558 99.643 130.781z" fill="#F2860F"/><path d="M179.042 228.194c21 9.539 46.568 14.375 74.232 14.375 27.648 0 53.201-4.836 74.201-14.367-18.243-26.782-44.694-43.733-74.216-43.733s-55.95 16.944-74.217 43.725z" fill="#D36C05"/><path d="M233.834 487.219c0 14.935-17.802 16.904-39.739 16.904s-39.739-1.961-39.739-16.904 17.802-35.509 39.739-35.509 39.739 20.567 39.739 35.509z" fill="#F45188"/><path d="M233.834 487.219c0 14.935-17.802 16.904-39.739 16.904s-39.739-1.961-39.739-16.904" fill="#D83573"/><path d="M352.185 487.219c0 14.935-17.802 16.904-39.739 16.904s-39.739-1.961-39.739-16.904 17.802-35.509 39.739-35.509 39.739 20.567 39.739 35.509z" fill="#F45188"/><path d="M352.185 487.219c0 14.935-17.802 16.904-39.739 16.904s-39.739-1.961-39.739-16.904" fill="#D83573"/><path d="M382.212 124.258c0 63.008-57.738 94.681-128.937 94.681-71.215 0-128.969-31.673-128.969-94.681C124.306 61.235 182.059 0 253.275 0c71.199 0 128.937 61.235 128.937 124.258z" fill="#CE5715"/><path d="M382.212 124.258c0 63.008-57.738 94.681-128.937 94.681-71.215 0-128.969-31.673-128.969-94.681 0-63.023 39.511-84.874 110.726-84.874 71.199.001 147.18 21.851 147.18 84.874z" fill="#F9A9A0"/><path d="M382.212 124.258c0 63.008-57.738 94.681-128.937 94.681-71.215 0-128.969-31.673-128.969-94.681" fill="#FF9997"/><circle cx="173.237" cy="83.921" r="11.532" fill="#113E49"/><path d="M184.769 83.921c0 6.388-5.167 11.54-11.54 11.54-6.372 0-11.524-5.152-11.524-11.54"/><path d="M195.986 107.977a2.377 2.377 0 0 1-1.725-.717c-5.632-5.624-13.107-8.72-21.047-8.72h-.016c-7.94 0-15.399 3.104-21 8.712-.953.953-2.489.977-3.434.008a2.4 2.4 0 0 1-.031-3.419c6.538-6.546 15.218-10.161 24.458-10.161h.016c9.263 0 17.951 3.592 24.505 10.145.937.937.937 2.505 0 3.434-.466.497-1.08.718-1.726.718z" fill="#FFD3C5"/><circle cx="295.857" cy="83.921" r="11.532" fill="#113E49"/><path d="M284.357 83.921c0 6.388 5.152 11.54 11.54 11.54 6.372 0 11.524-5.152 11.524-11.54"/><path d="M273.14 107.977c.599 0 1.229-.221 1.709-.717 5.632-5.624 13.107-8.72 21.047-8.72h.016c7.94 0 15.415 3.104 21.016 8.712a2.405 2.405 0 0 0 3.434.008c.953-.922.969-2.458.016-3.419-6.506-6.546-15.218-10.161-24.458-10.161h-.016c-9.247 0-17.936 3.592-24.505 10.145-.922.937-.922 2.505 0 3.434.481.497 1.095.718 1.741.718z" fill="#FFD3C5"/><path d="M305.317 324.545c-.032-.039-5.703-7.688-18.597-12.43 11.855-18.188 9.381-33.17 9.381-33.17s-13.399-2.198-30.224 7.57c-3.308-33.028-22.118-46.537-22.197-46.592v-.008.008c-.087.055-18.873 13.564-22.197 46.592-16.825-9.767-30.224-7.57-30.224-7.57l.016.016c-.024.126-2.434 15.037 9.358 33.154-12.895 4.758-18.542 12.39-18.566 12.422h-.008v.008h.008c.032.047 11.201 15.691 39.046 16.124 12.627.197 19.172-4.458 22.567-8.83 3.403 4.372 9.964 9.027 22.575 8.83 27.854-.433 39.023-16.077 39.062-16.124z" fill="#3E7A09"/></svg>