<svg xmlns="http://www.w3.org/2000/svg" viewBox="0 0 504.123 504.123"><path d="M236.076 361.913c0 19.503-15.817 124.668-35.336 124.668-19.495 0-35.304-105.173-35.304-124.668 0-19.495 15.817-35.32 35.304-35.32 19.52 0 35.336 15.825 35.336 35.32zm118.351 0c0 19.503-15.817 124.668-35.336 124.668-19.495 0-35.304-105.173-35.304-124.668 0-19.495 15.817-35.32 35.304-35.32 19.519 0 35.336 15.825 35.336 35.32z" fill="#232728"/><path d="M359.563 315.242c0 126.33-44.599 84.259-99.643 84.259-55.028 0-99.643 42.071-99.643-84.259 0-72.231 44.631-130.788 99.643-130.788 55.028.008 99.643 58.565 99.643 130.788z" fill="#6E9681"/><path d="M294.271 214.315c11.28-10.027 33.312-3.663 49.231 14.218 15.896 17.881 85.016 114.018 73.767 124.062-11.288 10.012-98.721-69.892-114.609-87.773-15.896-17.857-19.645-40.479-8.389-50.507z" fill="#6E9681"/><path d="M259.92 348.31c-49.554 0-90.64 34.036-98.336-51.389-.843 5.104-1.308 11.138-1.308 18.33 0 126.33 44.615 84.259 99.643 84.259 55.044 0 99.643 42.071 99.643-84.259 0-7.192-.465-13.225-1.308-18.33-7.686 85.425-48.765 51.389-98.334 51.389z" fill="#587A67"/><path d="M240.488 487.219c0 14.935-17.802 16.904-39.739 16.904s-39.739-1.961-39.739-16.904 17.802-35.509 39.739-35.509 39.739 20.567 39.739 35.509z" fill="#0DCEAE"/><path d="M240.488 487.219c0 14.935-17.802 16.904-39.739 16.904s-39.739-1.961-39.739-16.904" fill="#08B5B0"/><path d="M358.846 487.219c0 14.935-17.802 16.904-39.739 16.904s-39.739-1.961-39.739-16.904 17.802-35.509 39.739-35.509 39.739 20.567 39.739 35.509z" fill="#0DCEAE"/><path d="M358.846 487.219c0 14.935-17.802 16.904-39.739 16.904s-39.739-1.961-39.739-16.904" fill="#08B5B0"/><path d="M270.388 231.219c-.89-15.061-20.968-26.136-44.859-24.757-23.883 1.402-140.737 20.512-139.902 35.564.906 15.069 119.241 20.385 143.116 18.983 23.859-1.393 42.52-14.729 41.645-29.79z" fill="#6E9681"/><circle cx="259.92" cy="211.361" r="26.585" fill="#A56B44"/><path d="M388.873 124.258c0 63.008-57.738 94.681-128.937 94.681-71.215 0-128.969-31.673-128.969-94.681C130.967 61.235 188.72 0 259.936 0c71.199 0 128.937 61.235 128.937 124.258z" fill="#D8A17C"/><path d="M388.873 124.258c0 63.008-57.738 94.681-128.937 94.681-71.215 0-128.969-31.673-128.969-94.681 0-63.023 57.754-111.789 128.969-111.789 71.199 0 128.937 48.766 128.937 111.789z" fill="#C48960"/><path d="M388.873 124.258c0 63.008-57.738 94.681-128.937 94.681-71.215 0-128.969-31.673-128.969-94.681 0-63.023 57.754-111.789 128.969-111.789 71.199 0 128.937 48.766 128.937 111.789z" fill="#C48960"/><path d="M388.873 124.258c0 63.008-57.738 94.681-128.937 94.681-71.215 0-128.969-31.673-128.969-94.681" fill="#BC8158"/><path d="M384.738 95.374C370.528 43.78 320.107 0 259.936 0 188.72 0 130.967 61.235 130.967 124.258c0 16.187 3.86 30.271 10.72 42.307 6.246-3.923 10.413-10.807 10.413-18.716 0-.937-.165-1.827-.276-2.741 5.215-4.064 8.649-10.327 8.649-17.447 0-.937-.158-1.827-.276-2.741 5.215-4.064 8.649-10.327 8.649-17.447 0-7.089-3.403-13.32-8.57-17.384.803-.772 1.646-1.489 2.339-2.355 4.569 5.687 11.492 9.397 19.369 9.397 7.861 0 14.793-3.718 19.369-9.397 4.569 5.687 11.492 9.397 19.354 9.397 7.877 0 14.801-3.718 19.369-9.397 4.569 5.687 11.492 9.397 19.369 9.397 7.861 0 14.793-3.718 19.361-9.397 4.577 5.687 11.5 9.397 19.361 9.397 7.877 0 14.801-3.718 19.369-9.397 4.569 5.687 11.492 9.397 19.369 9.397 7.861 0 14.793-3.718 19.361-9.397 4.577 5.687 11.5 9.397 19.361 9.397 3.227.015 6.283-.647 9.111-1.757z" fill="#63391C"/><circle cx="211.729" cy="145.621" r="11.532" fill="#113E49"/><path d="M223.261 145.621c0 6.388-5.167 11.54-11.54 11.54-6.372 0-11.524-5.152-11.524-11.54"/><path d="M234.477 169.677a2.377 2.377 0 0 1-1.725-.717c-5.632-5.624-13.107-8.72-21.047-8.72h-.016c-7.94 0-15.399 3.104-21 8.712-.953.953-2.489.977-3.434.008a2.4 2.4 0 0 1-.031-3.419c6.538-6.546 15.218-10.161 24.458-10.161h.016c9.263 0 17.951 3.592 24.505 10.145.937.937.937 2.505 0 3.434-.465.497-1.08.718-1.726.718z" fill="#E5A376"/><circle cx="334.373" cy="145.621" r="11.532" fill="#113E49"/><path d="M322.841 145.621c0 6.388 5.152 11.54 11.54 11.54 6.372 0 11.524-5.152 11.524-11.54"/><path d="M311.632 169.677c.599 0 1.229-.221 1.709-.717 5.632-5.624 13.107-8.72 21.047-8.72h.016c7.94 0 15.415 3.104 21.016 8.712a2.405 2.405 0 0 0 3.434.008c.953-.922.969-2.458.016-3.419-6.506-6.546-15.218-10.161-24.458-10.161h-.031c-9.247 0-17.936 3.592-24.505 10.145-.922.937-.922 2.505 0 3.434.488.497 1.102.718 1.756.718z" fill="#E5A376"/><ellipse cx="275.193" cy="188.227" rx="6.239" ry="15.423" fill="#AA1111"/><path d="M268.963 188.227c0-8.523 2.788-15.431 6.239-15.431 3.442 0 6.231 6.908 6.231 15.431" fill="#870E0E"/><g fill="#0DCEAE"><path d="M255.595 296.212L255.595 256 220.764 276.118z"/><path d="M214.817 286.436L214.817 309.185 214.817 326.656 249.625 306.546z"/><path d="M267.521 256L267.521 296.204 302.345 276.11z"/><path d="M267.521 357.092L302.345 336.975 267.521 316.873z"/><path d="M255.595 357.092L255.595 316.873 220.756 336.975z"/><path d="M273.484 306.546L308.316 326.656 308.316 309.177 308.316 286.436z"/></g></svg>