<svg xmlns="http://www.w3.org/2000/svg" viewBox="0 0 504.123 504.123"><path d="M263.05 280.631c-10.027-11.28-3.663-33.312 14.218-49.231 17.881-15.896 114.018-85.016 124.062-73.767 10.012 11.296-69.892 98.721-87.773 114.617-17.865 15.888-40.479 19.645-50.507 8.381zm-21.976 0c10.027-11.28 3.663-33.312-14.218-49.231-17.881-15.896-114.018-85.016-124.062-73.767-10.012 11.296 69.892 98.721 87.773 114.617 17.865 15.888 40.479 19.645 50.507 8.381z" fill="#26BC30"/><path d="M168.582 188.731c-29.783-19.779-60.353-37.179-65.788-31.098-5.293 5.963 14.517 33.178 37.006 59.872l28.782-28.774zm198.302 25.695c21.402-25.679 39.526-51.058 34.438-56.793-5.23-5.845-33.713 10.035-62.377 28.853l27.939 27.94z" fill="#D39959"/><path d="M228.219 361.913c0 19.503-15.817 124.668-35.336 124.668-19.495 0-35.304-105.173-35.304-124.668 0-19.495 15.817-35.32 35.304-35.32 19.519 0 35.336 15.825 35.336 35.32zm118.35 0c0 19.503-15.817 124.668-35.336 124.668-19.495 0-35.304-105.173-35.304-124.668 0-19.495 15.817-35.32 35.304-35.32 19.52 0 35.336 15.825 35.336 35.32z" fill="#9B4308"/><path d="M351.705 315.242c0 126.33-44.599 84.259-99.643 84.259-55.028 0-99.643 42.071-99.643-84.259 0-72.231 44.631-130.781 99.643-130.781 55.028.009 99.643 58.558 99.643 130.781z" fill="#0EA012"/><path d="M252.062 184.47c-52.405 0-95.295 53.153-99.257 120.627 4.348 103.526 47.104 65.851 99.257 65.851 52.161 0 94.917 37.667 99.249-65.851-3.946-67.474-46.828-120.627-99.249-120.627z" fill="#26BC30"/><path d="M232.63 487.219c0 14.935-17.802 16.904-39.739 16.904s-39.739-1.961-39.739-16.904 17.802-35.509 39.739-35.509 39.739 20.567 39.739 35.509z" fill="#262626"/><path d="M232.63 487.219c0 14.935-17.802 16.904-39.739 16.904s-39.739-1.961-39.739-16.904"/><path d="M350.988 487.219c0 14.935-17.802 16.904-39.739 16.904s-39.739-1.961-39.739-16.904 17.802-35.509 39.739-35.509 39.739 20.567 39.739 35.509z" fill="#262626"/><path d="M350.988 487.219c0 14.935-17.802 16.904-39.739 16.904s-39.739-1.961-39.739-16.904"/><path d="M381.015 124.258c0 63.008-57.738 94.681-128.937 94.681-71.215 0-128.969-31.673-128.969-94.681C123.109 61.235 180.863 0 252.078 0c71.199 0 128.937 61.235 128.937 124.258z" fill="#EFC286"/><path d="M381.015 124.258c0 63.008-57.738 94.681-128.937 94.681-71.215 0-128.969-31.673-128.969-94.681" fill="#E8B374"/><path d="M235.702 92.798a2.446 2.446 0 0 1-1.733-.717c-5.616-5.624-13.099-8.72-21.031-8.72h-.016c-7.948 0-15.399 3.104-21 8.712-.953.953-2.489.977-3.426.008-.969-.922-.985-2.458-.047-3.419 6.546-6.546 15.218-10.161 24.466-10.161h.016c9.255 0 17.952 3.592 24.505 10.145.945.937.945 2.505 0 3.434-.466.497-1.096.718-1.734.718zm77.162 0a2.38 2.38 0 0 0 1.709-.717c5.632-5.624 13.107-8.72 21.039-8.72h.024c7.94 0 15.415 3.104 21.016 8.712a2.405 2.405 0 0 0 3.434.008c.953-.922.969-2.458.016-3.419-6.498-6.546-15.218-10.161-24.458-10.161h-.024c-9.24 0-17.928 3.592-24.497 10.145-.922.937-.922 2.505 0 3.434.473.497 1.095.718 1.741.718z" fill="#232728"/><path d="M302.49 112.9c0 8.696-7.058 15.754-15.754 15.754h-15.754c-8.704 0-15.754-7.058-15.754-15.754v-2.954c0-8.696 7.05-15.754 15.754-15.754h15.754c8.696 0 15.754 7.058 15.754 15.754v2.954z" fill="#840909"/><path d="M270.982 107.323c-6.916 0-12.721 4.474-14.848 10.665 2.127 6.183 7.932 10.665 14.848 10.665h15.754c6.9 0 12.705-4.474 14.832-10.665-2.127-6.191-7.932-10.665-14.832-10.665h-15.754z" fill="#AA1111"/><path d="M252.078 0c-52.523 0-97.634 33.343-117.752 76.107l.126 1.355h29.538V43.985h103.062V20.354L289.698 43h57.691c-23.592-25.639-57.494-43-95.311-43z" fill="#840909"/><g fill="#00FF06"><path d="M318.851 307.31L289.706 278.166 281.12 286.751 270.384 276.015 256.276 290.123 228.061 261.908 182.659 307.31 308.894 307.31z"/><path d="M313.888 313.336H187.629c-.591 0-1.079.473-1.079 1.063 0 .583.488 1.063 1.079 1.063H313.88a1.07 1.07 0 0 0 1.071-1.063c0-.59-.472-1.063-1.063-1.063zm-21.291 7.097h-83.692a1.064 1.064 0 0 0 0 2.126h83.692c.583 0 1.071-.48 1.071-1.063a1.06 1.06 0 0 0-1.071-1.063zm-10.626 7.089h-62.425c-.591 0-1.071.473-1.071 1.063 0 .583.48 1.063 1.071 1.063h62.425c.583 0 1.063-.48 1.063-1.063 0-.59-.48-1.063-1.063-1.063zm-10.65 7.09H230.18c-.583 0-1.063.473-1.063 1.063 0 .583.48 1.063 1.063 1.063h41.141c.583 0 1.063-.48 1.063-1.063a1.057 1.057 0 0 0-1.063-1.063z"/></g></svg>