<svg xmlns="http://www.w3.org/2000/svg" viewBox="0 0 504.123 504.123"><path fill="#B51D1D" d="M116.658 398.494H123.117V411.144H116.658z"/><path fill="#B51D1D" d="M160.793 398.494H167.252V411.144H160.793z"/><path d="M207.267 495.419c0 4.805-3.899 8.704-8.712 8.704H82.638c-4.805 0-8.712-3.899-8.712-8.704v-76.698c0-4.813 3.907-8.72 8.712-8.72h115.917c4.813 0 8.712 3.907 8.712 8.72v76.698z" fill="#F15249"/><path d="M167.252 398.517a3.45 3.45 0 0 1-3.45 3.45h-43.701a3.45 3.45 0 0 1-3.45-3.45v-11.398a3.45 3.45 0 0 1 3.45-3.45h43.701a3.454 3.454 0 0 1 3.45 3.45v11.398z" fill="#0AA06E"/><path d="M116.658 387.119a3.45 3.45 0 0 1 3.45-3.45h43.701a3.454 3.454 0 0 1 3.45 3.45v11.398a3.45 3.45 0 0 1-3.45 3.45" fill="#007C56"/><path fill="#FFFFFF" d="M84.883 479.468H104.804V482.422H84.883z"/><path fill="#FFFFFF" d="M84.883 486.873H104.804V489.827H84.883z"/><path d="M207.267 495.419v-20.228l-49.719-49.719-48.672 48.664 29.995 29.987h59.683c4.813 0 8.713-3.899 8.713-8.704z" fill="#C93131"/><path d="M202.32 503.249l-61.282-61.275-15.1 15.108 47.041 47.041h25.576a8.762 8.762 0 0 0 3.765-.874z" fill="#B51D1D"/><path fill="#FFFFFF" d="M172.191 440.186L157.469 440.186 157.469 425.48 123.732 425.48 123.732 440.186 109.01 440.186 109.01 473.947 123.732 473.947 123.732 488.645 157.469 488.645 157.469 473.947 172.191 473.947z"/><path fill="#EAEAEA" d="M157.469 473.947L172.191 473.947 172.191 440.186 157.469 440.186 157.469 425.48 123.732 425.48 123.732 440.186"/><path fill="#B51D1D" d="M187.724 421.352H196.333V429.969H187.724z"/><path d="M256.222 361.913c0 19.503-15.817 124.668-35.336 124.668-19.495 0-35.304-105.173-35.304-124.668 0-19.495 15.817-35.32 35.304-35.32 19.527 0 35.336 15.825 35.336 35.32zm118.358 0c0 19.503-15.817 124.668-35.336 124.668-19.495 0-35.304-105.173-35.304-124.668 0-19.495 15.817-35.32 35.304-35.32 19.519 0 35.336 15.825 35.336 35.32z" fill="#4F340E"/><path d="M379.716 315.242c0 126.33-44.599 84.259-99.643 84.259-55.028 0-99.643 42.071-99.643-84.259 0-72.231 44.631-130.781 99.643-130.781 55.028.009 99.643 58.558 99.643 130.781z" fill="#9CB5B5"/><path d="M260.641 487.219c0 14.935-17.802 16.904-39.739 16.904s-39.739-1.961-39.739-16.904 17.802-35.509 39.739-35.509 39.739 20.567 39.739 35.509z" fill="#3F4B4C"/><path d="M260.641 487.219c0 14.935-17.802 16.904-39.739 16.904s-39.739-1.961-39.739-16.904" fill="#2C3838"/><path d="M378.991 487.219c0 14.935-17.802 16.904-39.739 16.904-21.937 0-39.739-1.961-39.739-16.904s17.802-35.509 39.739-35.509c21.938 0 39.739 20.567 39.739 35.509z" fill="#3F4B4C"/><path d="M378.991 487.219c0 14.935-17.802 16.904-39.739 16.904-21.937 0-39.739-1.961-39.739-16.904" fill="#2C3838"/><path d="M269.085 203.768c10.027 11.28 3.663 33.304-14.218 49.223-17.881 15.896-114.018 85.024-124.062 73.767-10.012-11.296 69.892-98.714 87.773-114.609 17.865-15.895 40.479-19.653 50.507-8.381zm21.968 0c-10.027 11.28-3.663 33.304 14.218 49.223 17.881 15.896 114.018 85.024 124.062 73.767 10.012-11.296-69.892-98.714-87.773-114.609-17.857-15.895-40.471-19.653-50.507-8.381z" fill="#9CB5B5"/><path fill="#E2DED3" d="M259.396 199.546H300.75V390.892H259.396z"/><path d="M259.396 233.669c6.751.622 13.627 1.024 20.693 1.024 7.05 0 13.926-.402 20.661-1.024v-34.123h-41.354v34.123z" fill="#C6BFAF"/><path d="M409.026 124.258c0 63.008-57.738 94.681-128.937 94.681-71.215 0-128.969-31.673-128.969-94.681C151.12 61.235 208.873 0 280.089 0c71.199 0 128.937 61.235 128.937 124.258z" fill="#F9C1AC"/><path d="M409.026 124.258c0 63.008-57.738 94.681-128.937 94.681-71.215 0-128.969-31.673-128.969-94.681" fill="#F2B09C"/><circle cx="218.743" cy="136.428" r="11.532" fill="#113E49"/><path d="M230.283 136.428c0 6.388-5.167 11.54-11.54 11.54s-11.524-5.152-11.524-11.54"/><path d="M241.5 160.484a2.377 2.377 0 0 1-1.725-.717c-5.632-5.624-13.107-8.72-21.047-8.72h-.016c-7.94 0-15.399 3.104-21 8.712-.953.953-2.489.977-3.434.008a2.402 2.402 0 0 1-.032-3.419c6.538-6.546 15.218-10.161 24.458-10.161h.016c9.263 0 17.952 3.592 24.505 10.145.937.937.937 2.505 0 3.434-.465.498-1.079.718-1.725.718z" fill="#FFD3C5"/><circle cx="341.403" cy="136.428" r="11.532" fill="#113E49"/><path d="M329.871 136.428a11.52 11.52 0 0 0 11.54 11.54c6.372 0 11.524-5.152 11.524-11.54"/><path d="M318.654 160.484c.599 0 1.229-.221 1.709-.717 5.632-5.624 13.107-8.72 21.047-8.72h.016c7.94 0 15.415 3.104 21.016 8.712a2.405 2.405 0 0 0 3.434.008c.953-.922.969-2.458.016-3.419-6.506-6.546-15.218-10.161-24.458-10.161h-.016c-9.247 0-17.936 3.592-24.505 10.145-.922.937-.922 2.505 0 3.434.481.498 1.095.718 1.741.718z" fill="#FFD3C5"/><path d="M280.089 0c-1.788 0-3.505.205-5.27.284-.898 1.182-1.638 2.442-2.087 3.812-6.097 18.81 32.989 48.356 87.3 65.946 13.698 4.435 27.057 7.688 39.471 9.775C380.315 35.281 334.117 0 280.089 0z" fill="#A54B08"/><path d="M337.504 14.131C320.19 5.27 300.734 0 280.089 0 225.738 0 179.32 35.698 160.336 80.605c20.33 4.624 54.185 1.197 90.49-10.563 45.403-14.707 80.069-37.754 86.678-55.911z" fill="#BC5806"/><path d="M242.098 187.557c0-13.682 17.014-24.836 37.998-24.836 20.953 0 37.951 11.154 37.951 24.836 0 13.769-16.998 5.522-37.951 5.522-20.976 0-37.998 8.247-37.998-5.522z" fill="#AA1111"/><g fill="#D62B2B"><path d="M269.841 185.336c2.253 2.119 5.994 3.505 10.232 3.505 4.23 0 7.979-1.394 10.232-3.505-2.253-2.127-6.002-3.513-10.232-3.513-4.238 0-7.979 1.394-10.232 3.513zM303.704 292.1h-47.262c-13.147 0-23.843-10.689-23.843-23.836v-50.995a3.94 3.94 0 0 1 7.876 0v50.995c0 8.799 7.16 15.959 15.967 15.959h47.262c8.806 0 15.967-7.16 15.967-15.959v-50.995a3.94 3.94 0 0 1 3.938-3.938 3.944 3.944 0 0 1 3.938 3.938v50.995c0 13.147-10.697 23.836-23.843 23.836z"/><path d="M329.469 368.908a3.934 3.934 0 0 1-3.938-3.938v-31.508h-52.508v-44.639a3.935 3.935 0 0 1 3.938-3.938 3.944 3.944 0 0 1 3.938 3.938v36.762h52.508v39.385a3.94 3.94 0 0 1-3.938 3.938z"/><path d="M329.469 397.462c-11.768 0-21.339-9.57-21.339-21.331 0-11.768 9.57-21.339 21.339-21.339 11.76 0 21.339 9.57 21.339 21.339 0 11.76-9.579 21.331-21.339 21.331zm0-34.793c-7.42 0-13.462 6.042-13.462 13.462 0 7.412 6.042 13.454 13.462 13.454 7.412 0 13.462-6.042 13.462-13.454 0-7.42-6.042-13.462-13.462-13.462z"/></g></svg>