<svg id="Layer_1"
    xmlns="http://www.w3.org/2000/svg" viewBox="0 0 265.4 61.9">
    <style>.st0{fill:#5b21b6}</style>
    <title>Asset 18</title>
    <g id="Layer_2_1_">
        <g id="Layer_1-2">
            <path class="st0" d="M0 1.9c0-.7.3-.9.9-.9h10.5c.6-.1 1.2.3 1.4.9L28 36.1h.4L43.2 1.9c.2-.6.8-1 1.4-.9H55c.6 0 .9.3.9.9v58.2c0 .6-.3.9-.9.9H45c-.6 0-.9-.3-.9-.9V26.3h-.3L32.6 51.6c-.2.7-.9 1.2-1.6 1.1h-6.1c-.7 0-1.4-.4-1.7-1.1L12.1 26.3h-.4v33.8c0 .6-.3.9-.9.9H.8c-.5 0-.8-.3-.8-.9V1.9zm115.3 0c0-.6.3-.9.9-.9h10.6c.6 0 1.2.3 1.5.9l21.2 37.8h.4V1.9c0-.6.3-.9.9-.9h10c.6 0 .9.3.9.9v58.2c0 .6-.3.9-.9.9h-10.5c-.6 0-1.2-.3-1.5-.9l-21.2-37.7h-.6v37.7c0 .6-.3.9-.9.9h-10c-.6 0-.9-.3-.9-.9l.1-58.2zm113.4 57.7c-3.7-1.2-7.1-3.3-10-5.9-.4-.3-.5-1-.2-1.4l.1-.1 6.7-7.7c.2-.4.7-.5 1.1-.3.1 0 .1.1.2.2 5.2 4.2 10.4 6.2 15.7 6.2 6.1 0 9.8-2.8 9.8-7.1 0-3.8-2.5-5.7-9.3-6.7l-3.2-.4c-12.6-1.8-19-7.8-19-18-.2-5.1 2-10 5.8-13.3 3.9-3.3 9.1-5 15.5-5 8.2 0 15 2.1 20.4 6.3.4.2.6.7.4 1 0 .1-.1.2-.2.3l-5.4 8c-.3.4-.8.5-1.2.3-4.1-2.9-9-4.5-13.9-4.6-5.2 0-8 2.7-8 6.5 0 3.5 2.6 5.6 9.4 6.6l3.2.4c12.6 1.7 18.9 7.8 18.9 18.2 0 11.3-8.5 18.9-23.6 18.9-4.5-.1-9-.9-13.2-2.4zM112.8 61h-11.7c-.6.1-1.1-.3-1.2-.9l-7.1-21.9L86 16.9h-.3l-6.9 21.3-3.6 11.2-3.4 10.7c-.1.5-.6.9-1.2.9H58.8c-.6 0-.8-.3-.6-.9L79.2.9c.1-.6.6-1 1.2-.9h11.3c.6 0 1.1.4 1.2.9l20.6 59.2c.1.6-.1.9-.7.9z"/>
            <circle class="st0" cx="85.8" cy="48.3" r="8.6"/>
            <path class="st0" d="M218.6 61h-11.7c-.6.1-1.1-.3-1.2-.9l-7.1-21.9-6.9-21.3h-.3l-6.9 21.3-3.5 11.2-3.4 10.7c-.1.5-.6.9-1.2.9h-11.8c-.6 0-.8-.3-.6-.9L185 .9c.1-.5.6-.9 1.1-.9h11.3c.6 0 1.1.4 1.2.9l20.6 59.2c.2.6 0 .9-.6.9z"/>
            <circle class="st0" cx="191.6" cy="48.3" r="8.6"/>
        </g>
    </g>
</svg>