<svg xmlns="http://www.w3.org/2000/svg" viewBox="0 0 504.123 504.123"><path d="M241.073 203.768c10.027 11.28 3.663 33.304-14.218 49.223-17.881 15.896-114.018 85.024-124.062 73.767-10.012-11.296 69.892-98.714 87.773-114.609 17.865-15.895 40.48-19.653 50.507-8.381zm21.977 0c-10.027 11.28-3.663 33.304 14.218 49.223 17.881 15.896 114.018 85.024 124.062 73.767 10.012-11.296-69.892-98.714-87.773-114.609-17.865-15.895-40.48-19.653-50.507-8.381z" fill="#363B3F"/><path d="M346.569 361.913c0 19.503-15.817 124.668-35.336 124.668-19.495 0-35.304-105.173-35.304-124.668 0-19.495 15.817-35.32 35.304-35.32 19.519 0 35.336 15.825 35.336 35.32zm-118.351 0c0 19.503-15.817 124.668-35.336 124.668-19.495 0-35.304-105.173-35.304-124.668 0-19.495 15.817-35.32 35.304-35.32 19.519 0 35.336 15.825 35.336 35.32z" fill="#AA0909"/><path d="M351.705 315.242c0 126.33-44.599 84.259-99.643 84.259-55.028 0-99.643 42.071-99.643-84.259 0-72.231 44.631-130.781 99.643-130.781 55.028.009 99.643 58.558 99.643 130.781z" fill="#CE1111"/><path d="M232.629 487.219c0 14.935-17.802 16.904-39.739 16.904s-39.739-1.961-39.739-16.904 17.802-35.509 39.739-35.509 39.739 20.567 39.739 35.509z" fill="#EAC00F"/><path d="M232.629 487.219c0 14.935-17.802 16.904-39.739 16.904s-39.739-1.961-39.739-16.904" fill="#BF9C0A"/><path d="M350.988 487.219c0 14.935-17.802 16.904-39.739 16.904s-39.739-1.961-39.739-16.904 17.802-35.509 39.739-35.509 39.739 20.567 39.739 35.509z" fill="#EAC00F"/><path d="M350.988 487.219c0 14.935-17.802 16.904-39.739 16.904s-39.739-1.961-39.739-16.904" fill="#BF9C0A"/><path d="M173.088 235.733c21.835 11.059 49.191 16.683 78.99 16.683 29.783 0 57.139-5.624 78.966-16.683-18.211-31.114-46.773-51.263-78.982-51.263-32.201 0-60.771 20.141-78.974 51.263z" fill="#AA0909"/><path d="M381.015 124.258c0 63.008-57.738 94.681-128.937 94.681-71.215 0-128.969-31.673-128.969-94.681C123.108 61.235 180.862 0 252.077 0c71.2 0 128.938 61.235 128.938 124.258z" fill="#FFD31A"/><path d="M381.015 124.258c0 63.008-57.738 94.681-128.937 94.681-71.215 0-128.969-31.673-128.969-94.681 0-63.023 57.754-94.066 128.969-94.066 71.199 0 128.937 31.043 128.937 94.066z" fill="#EAC00F"/><path d="M381.015 124.258c0 63.008-57.738 94.681-128.937 94.681-71.215 0-128.969-31.673-128.969-94.681" fill="#BF9C0A"/><path d="M358.4 128.67c0 8.696-7.058 15.754-15.754 15.754H161.477c-8.696 0-15.754-7.058-15.754-15.754v-13.139c0-8.696 7.058-15.754 15.754-15.754h181.169c8.696 0 15.754 7.058 15.754 15.754v13.139z" fill="#363B3F"/><path d="M145.723 124.258v4.411c0 8.696 7.058 15.754 15.754 15.754h181.169c8.696 0 15.754-7.058 15.754-15.754v-4.411H145.723z" fill="#191E21"/><path d="M171.638 128.331a4.92 4.92 0 0 1-4.923 4.923 4.92 4.92 0 0 1-4.923-4.923v-12.477a4.93 4.93 0 0 1 4.923-4.923 4.93 4.93 0 0 1 4.923 4.923v12.477z" fill="#FF9C9C"/><path d="M188.707 128.331a4.92 4.92 0 0 1-4.923 4.923 4.915 4.915 0 0 1-4.923-4.923v-12.477a4.925 4.925 0 0 1 4.923-4.923 4.93 4.93 0 0 1 4.923 4.923v12.477z" fill="#FF5555"/><path d="M205.777 128.331a4.922 4.922 0 0 1-4.931 4.923 4.918 4.918 0 0 1-4.915-4.923v-12.477c0-2.71 2.206-4.923 4.915-4.923a4.932 4.932 0 0 1 4.931 4.923v12.477z" fill="#FF3E3E"/><path d="M222.846 128.331a4.92 4.92 0 0 1-4.923 4.923 4.915 4.915 0 0 1-4.923-4.923v-12.477a4.925 4.925 0 0 1 4.923-4.923 4.93 4.93 0 0 1 4.923 4.923v12.477z" fill="#EF2929"/><path d="M239.915 128.331a4.92 4.92 0 0 1-4.923 4.923 4.92 4.92 0 0 1-4.923-4.923v-12.477a4.93 4.93 0 0 1 4.923-4.923 4.93 4.93 0 0 1 4.923 4.923v12.477z" fill="#EA1818"/><path d="M256.985 128.331a4.92 4.92 0 0 1-4.923 4.923 4.92 4.92 0 0 1-4.923-4.923v-12.477a4.93 4.93 0 0 1 4.923-4.923 4.93 4.93 0 0 1 4.923 4.923v12.477z" fill="#DB1F1F"/><path d="M274.054 128.331a4.922 4.922 0 0 1-4.931 4.923 4.918 4.918 0 0 1-4.915-4.923v-12.477c0-2.71 2.206-4.923 4.915-4.923a4.932 4.932 0 0 1 4.931 4.923v12.477z" fill="#CE1111"/><path d="M291.123 128.331a4.92 4.92 0 0 1-4.923 4.923 4.92 4.92 0 0 1-4.923-4.923v-12.477a4.93 4.93 0 0 1 4.923-4.923 4.93 4.93 0 0 1 4.923 4.923v12.477z" fill="#A01717"/><path d="M308.192 128.331a4.92 4.92 0 0 1-4.923 4.923 4.92 4.92 0 0 1-4.923-4.923v-12.477a4.93 4.93 0 0 1 4.923-4.923 4.93 4.93 0 0 1 4.923 4.923v12.477z" fill="#6B1C1C"/><path d="M325.262 128.331a4.92 4.92 0 0 1-4.923 4.923 4.92 4.92 0 0 1-4.923-4.923v-12.477a4.93 4.93 0 0 1 4.923-4.923 4.93 4.93 0 0 1 4.923 4.923v12.477z" fill="#5E1313"/><path d="M342.331 128.331a4.922 4.922 0 0 1-4.931 4.923 4.918 4.918 0 0 1-4.915-4.923v-12.477c0-2.71 2.206-4.923 4.915-4.923a4.932 4.932 0 0 1 4.931 4.923v12.477z" fill="#440C0C"/><path d="M154.419 357.085c-.559 4.443.811 9.09 4.214 12.509l82.802 45.198c5.876 5.868 15.384 5.868 21.26 0l82.786-45.198c3.434-3.419 4.781-8.058 4.23-12.509H154.419z" fill="#BF9C0A"/><path d="M262.695 397.068l81.109-39.983h-191.37l89.001 39.983c5.869 5.868 15.384 5.868 21.26 0z" fill="#EAC00F"/><path fill="#EAC00F" d="M249.604 259.608L213.165 296.038 241.727 296.038 224.981 330.996 290.958 290.131 256.488 290.131 287.019 259.608z"/><path d="M193.969 234.504c0 10.602-8.602 12.304-19.204 12.304s-19.204-1.709-19.204-12.304 8.602-19.204 19.204-19.204c10.603 0 19.204 8.602 19.204 19.204z" fill="#EAC00F"/><path d="M193.969 234.504c0 10.602-8.602 12.304-19.204 12.304s-19.204-1.709-19.204-12.304 8.602-1.481 19.204-1.481c10.603 0 19.204-9.121 19.204 1.481z" fill="#BF9C0A"/><path d="M310.154 234.504c0 10.602 8.602 12.304 19.204 12.304s19.204-1.709 19.204-12.304-8.602-19.204-19.204-19.204c-10.603 0-19.204 8.602-19.204 19.204z" fill="#EAC00F"/><g fill="#BF9C0A"><path d="M310.154 234.504c0 10.602 8.602 12.304 19.204 12.304s19.204-1.709 19.204-12.304-8.602-1.481-19.204-1.481c-10.603 0-19.204-9.121-19.204 1.481z"/><circle cx="193.3" cy="260.592" r="5.254"/><circle cx="193.3" cy="281.6" r="5.254"/><circle cx="193.3" cy="302.608" r="5.254"/><circle cx="193.3" cy="323.623" r="5.254"/><circle cx="310.808" cy="260.592" r="5.254"/><circle cx="310.808" cy="281.6" r="5.254"/><circle cx="310.808" cy="302.608" r="5.254"/><circle cx="310.808" cy="323.623" r="5.254"/></g></svg>