<svg xmlns="http://www.w3.org/2000/svg" viewBox="0 0 504.123 504.123"><path d="M241.073 203.768c10.027 11.28 3.663 33.304-14.218 49.223-17.881 15.896-114.018 85.024-124.062 73.767-10.012-11.296 69.892-98.714 87.773-114.609 17.865-15.895 40.48-19.653 50.507-8.381zm21.977 0c-10.027 11.28-3.663 33.304 14.218 49.223 17.881 15.896 114.018 85.024 124.062 73.767 10.012-11.296-69.892-98.714-87.773-114.609-17.865-15.895-40.48-19.653-50.507-8.381zm83.519 158.145c0 19.503-15.817 124.668-35.336 124.668-19.495 0-35.304-105.173-35.304-124.668 0-19.495 15.817-35.32 35.304-35.32 19.519 0 35.336 15.825 35.336 35.32zm-118.351 0c0 19.503-15.817 124.668-35.336 124.668-19.495 0-35.304-105.173-35.304-124.668 0-19.495 15.817-35.32 35.304-35.32 19.519 0 35.336 15.825 35.336 35.32z" fill="#EA990A"/><path d="M351.705 315.242c0 126.33-44.599 84.259-99.643 84.259-55.028 0-99.643 42.071-99.643-84.259 0-72.231 44.631-130.781 99.643-130.781 55.028.009 99.643 58.558 99.643 130.781z" fill="#EFC206"/><path d="M165.904 422.085c5.506 27.301 13.32 54.705 22.166 62.354h9.602c8.862-7.648 16.691-35.052 22.189-62.354h-53.957zm118.358 0c5.506 27.301 13.32 54.705 22.166 62.354h9.602c8.869-7.648 16.691-35.052 22.181-62.354h-53.949z" fill="#1267CC"/><path d="M232.629 487.219c0 14.935-17.802 16.904-39.739 16.904s-39.739-1.961-39.739-16.904 17.802-35.509 39.739-35.509 39.739 20.567 39.739 35.509z" fill="#2289EF"/><path d="M232.629 487.219c0 14.935-17.802 16.904-39.739 16.904s-39.739-1.961-39.739-16.904" fill="#1267CC"/><path d="M350.988 487.219c0 14.935-17.802 16.904-39.739 16.904s-39.739-1.961-39.739-16.904 17.802-35.509 39.739-35.509 39.739 20.567 39.739 35.509z" fill="#2289EF"/><path d="M350.988 487.219c0 14.935-17.802 16.904-39.739 16.904s-39.739-1.961-39.739-16.904" fill="#1267CC"/><path d="M381.015 124.258c0 63.008-57.738 94.681-128.937 94.681-71.215 0-128.969-31.673-128.969-94.681C123.108 61.235 180.862 0 252.077 0c71.2 0 128.938 61.235 128.938 124.258z" fill="#EFC206"/><path d="M381.015 124.258c0 63.008-57.738 100.391-128.937 100.391-71.215 0-128.969-37.384-128.969-100.391" fill="#EA990A"/><path fill="#020200" d="M253.046 178.538L253.046 90.908 105.354 5.246 111.262 114.538z"/><path fill="#020200" d="M251.077 178.538L251.077 90.908 398.769 5.246 392.862 114.538z"/><path d="M122.982 287.744c-14.36 18.723-24.08 34.627-20.181 39.014 3.82 4.285 20.141-3.096 39.849-14.738l2.308-2.308-21.976-21.968zm235.45 22.465c21.063 12.674 38.88 21.063 42.89 16.557 3.907-4.403-5.876-20.378-20.291-39.156l-22.599 22.599z" fill="#1267CC"/><path d="M157.46 372.185h189.204c1.646-6.774 2.907-14.785 3.757-24.292H153.71c.843 9.507 2.103 17.517 3.75 24.292z" fill="#CE1332"/><path d="M197.183 147.85v63.354l1.481.851c16.289 4.537 34.336 6.884 53.413 6.884 19.046 0 37.085-2.347 53.366-6.869l1.489-.866V147.85l-54.871 25.442-54.878-25.442z" fill="#E0B373"/><path d="M197.183 162.619v48.585l1.481.851c16.289 4.537 34.336 6.884 53.413 6.884 19.046 0 37.085-2.347 53.366-6.869l1.489-.866v-48.585l-54.879 25.442-54.87-25.442z" fill="#F4CB89"/><path fill="#EBF0F2" d="M222.192 137.846L174.931 112.916 198.561 93.223 224.815 118.154z"/><path fill="#ADB9BC" d="M222.192 137.846L174.931 112.916 198.561 118.823 224.815 118.154z"/><path fill="#EBF0F2" d="M281.931 137.846L329.192 112.916 305.562 93.223 279.308 118.154z"/><path fill="#ADB9BC" d="M281.931 137.846L329.192 112.916 305.562 118.823 279.308 118.154z"/><g fill="#020200"><path d="M157.783 273.187a167.156 167.156 0 0 0-5.372 42.063c0 10.949.354 20.543 1 29.097l48.451-16.636-28.672-9.846 28.672-9.846-28.672-9.846 28.672-9.846-44.079-15.14zm192.921 71.161c.646-8.554 1-18.156 1-29.097 0-14.738-1.938-28.845-5.372-42.063l-44.087 15.139 28.664 9.846-28.664 9.846 28.664 9.846-28.664 9.846 48.459 16.637z"/><path d="M61.818 324.545L72.814 324.545 72.814 335.541 12.296 385.079z"/><path d="M76.556 339.275L87.552 339.275 87.536 350.271 27.018 399.801z"/><path d="M91.278 354.005L102.274 354.005 102.274 365.001 41.756 414.539z"/></g><circle cx="92.759" cy="331.492" r="34.792" fill="#1267CC"/><g fill="#020200"><path d="M442.305 324.545L431.309 324.545 431.309 335.541 491.827 385.079z"/><path d="M427.567 339.275L416.571 339.275 416.587 350.271 477.105 399.801z"/><path d="M412.845 354.005L401.849 354.005 401.849 365.001 462.368 414.539z"/></g><circle cx="411.364" cy="331.492" r="34.792" fill="#1267CC"/></svg>